<?xml version="1.0" standalone="no"?>
<!DOCTYPE svg PUBLIC "-//W3C//DTD SVG 20010904//EN"
 "http://www.w3.org/TR/2001/REC-SVG-20010904/DTD/svg10.dtd">
<svg version="1.0" xmlns="http://www.w3.org/2000/svg"
 width="500.000000pt" height="500.000000pt" viewBox="0 0 500.000000 500.000000"
 preserveAspectRatio="xMidYMid meet">
<metadata>
Created by potrace 1.14, written by Peter Selinger 2001-2017
</metadata>
<g transform="translate(0.000000,500.000000) scale(0.100000,-0.100000)"
fill="#000000" stroke="none">
<path d="M3124 3861 c16 -17 15 -19 -6 -26 -13 -4 -30 -8 -38 -9 -8 -1 -20 -5
-27 -9 -6 -4 -14 -3 -17 2 -4 5 -1 12 4 14 6 3 5 4 -2 3 -7 -2 -12 -11 -10
-21 2 -9 -1 -14 -7 -11 -5 4 -17 -4 -25 -16 -9 -12 -16 -17 -16 -11 0 6 7 16
15 23 19 16 19 27 0 27 -8 0 -12 -5 -8 -10 6 -11 -36 1 -53 14 -7 6 -16 4 -24
-6 -7 -8 -17 -12 -24 -8 -15 10 -36 13 -35 5 3 -19 -2 -32 -12 -32 -5 0 -7 6
-3 13 5 8 3 8 -9 -2 -18 -14 -13 -36 5 -25 6 4 19 -4 28 -16 l18 -23 -3 25
c-3 24 6 29 35 18 3 -1 8 -2 11 -2 3 1 6 -5 6 -12 0 -7 -6 -13 -13 -13 -7 0
-11 4 -8 8 2 4 0 10 -5 13 -5 3 -11 -1 -15 -9 -3 -8 3 -19 12 -25 12 -8 13
-10 2 -7 -8 2 -21 -3 -28 -12 -10 -14 -11 -14 -7 -1 4 11 -1 16 -15 17 -17 2
-18 -1 -10 -17 7 -13 7 -21 0 -25 -15 -9 -12 -25 6 -25 9 0 12 5 8 13 -4 6 -4
9 1 5 4 -4 15 -2 24 5 9 7 7 2 -4 -14 -14 -19 -24 -25 -35 -19 -12 6 -16 3
-17 -13 -2 -17 0 -19 8 -7 8 13 12 11 29 -9 11 -12 17 -27 14 -33 -3 -5 3 -4
14 3 12 7 18 17 15 22 -3 5 -9 4 -13 -3 -5 -8 -9 -8 -13 3 -4 10 0 14 11 13 9
-2 23 4 30 13 10 14 11 13 5 -4 -6 -18 -5 -19 13 -5 10 8 15 10 11 5 -4 -5 3
-15 15 -22 l23 -14 -22 6 c-18 5 -22 3 -17 -10 4 -10 14 -15 25 -12 11 3 17 2
15 -2 -3 -4 -1 -13 4 -21 5 -8 5 -21 0 -31 -13 -24 -78 -60 -86 -48 -4 7 -10
6 -18 0 -7 -6 -15 -9 -17 -6 -3 2 -5 -4 -5 -14 0 -10 6 -18 12 -18 7 0 10 6 7
13 -3 9 2 12 18 9 13 -3 27 1 31 8 6 9 8 8 8 -4 0 -8 -6 -21 -12 -28 -8 -9 -9
-12 -1 -7 7 4 9 -1 6 -14 -3 -11 -10 -20 -17 -20 -6 0 -5 -4 3 -9 18 -11 26
-61 11 -61 -6 0 -8 -5 -4 -11 3 -6 -6 -3 -22 7 -27 17 -28 17 -15 1 12 -15 12
-17 -4 -11 -13 5 -16 4 -11 -4 5 -8 1 -10 -10 -5 -13 5 -15 3 -9 -7 6 -9 4
-11 -5 -5 -10 6 -10 11 3 20 21 15 21 22 2 22 -8 0 -12 -3 -10 -6 2 -4 -4 -15
-12 -26 -15 -19 -15 -19 -9 10 6 28 5 29 -9 11 -8 -10 -12 -23 -9 -27 3 -5 -3
-6 -12 -2 -13 5 -15 3 -9 -8 8 -12 6 -12 -8 0 -9 7 -17 20 -17 28 0 11 5 11
23 3 21 -11 21 -10 3 4 -22 17 -36 13 -36 -12 -1 -15 -2 -15 -14 1 -9 12 -16
14 -21 8 -3 -6 0 -11 7 -11 7 0 2 -6 -11 -13 -13 -6 -23 -16 -22 -21 2 -5 -3
-12 -10 -17 -8 -4 -10 -11 -6 -16 5 -4 12 -1 17 7 6 8 10 11 10 7 0 -4 9 -3
20 3 10 6 17 16 14 23 -3 8 2 14 10 14 11 0 13 -5 5 -18 -5 -11 -5 -20 0 -24
5 -3 12 2 14 10 4 11 4 10 3 -2 -1 -13 -9 -17 -29 -16 -15 1 -26 -1 -23 -5 2
-4 -3 -8 -12 -8 -9 -1 -24 -3 -32 -5 -8 -2 -14 1 -13 7 1 6 -4 11 -12 11 -7 0
-11 -6 -8 -14 3 -7 1 -13 -5 -13 -6 0 -13 6 -15 13 -3 7 -6 5 -6 -5 -1 -10 -6
-18 -12 -18 -5 0 -8 4 -4 9 3 5 1 12 -5 16 -5 3 -10 -1 -10 -10 0 -12 -4 -14
-19 -5 -17 9 -19 7 -16 -12 4 -21 3 -22 -9 -5 -14 18 -32 24 -21 7 4 -6 -6
-10 -24 -10 -16 0 -32 -6 -34 -12 -4 -10 -6 -10 -6 0 -1 17 -16 15 -35 -4 -16
-16 -71 -31 -63 -17 3 4 -6 9 -19 9 -13 1 -24 -2 -24 -8 0 -5 4 -7 9 -3 5 3
13 0 17 -6 4 -8 3 -9 -4 -5 -7 4 -12 3 -12 -3 0 -5 -9 -8 -20 -6 -11 2 -22 -1
-26 -6 -4 -6 -14 -3 -27 8 -11 10 -17 13 -14 6 8 -13 -27 -28 -43 -18 -5 3
-10 0 -10 -7 0 -10 -2 -10 -9 1 -5 8 -11 9 -15 3 -6 -10 -268 -9 -401 2 -38 3
-115 8 -170 11 -55 4 -131 9 -170 11 -137 10 -982 19 -1090 11 -27 -1 -59 1
-70 5 -15 7 -14 4 4 -9 27 -20 74 -26 64 -9 -5 8 -3 8 8 0 24 -18 51 -25 43
-11 -5 9 -4 9 6 0 7 -6 19 -9 27 -6 8 3 19 0 24 -8 7 -12 9 -12 9 0 0 11 4 10
13 -4 10 -12 16 -14 21 -7 4 7 12 12 17 12 6 0 7 -5 3 -11 -5 -8 -2 -9 12 -1
14 8 23 7 36 -5 16 -14 18 -14 24 0 5 13 9 14 19 4 7 -7 11 -15 9 -18 -2 -3
14 -3 36 1 36 7 39 6 28 -8 -11 -14 -10 -15 7 -8 28 11 66 16 61 7 -3 -4 -1
-13 5 -21 5 -9 9 -10 9 -3 0 19 43 11 48 -9 2 -10 8 -15 13 -12 5 3 4 15 -2
27 -10 21 -10 21 6 2 8 -11 13 -25 11 -32 -3 -7 0 -15 6 -19 7 -5 8 -2 3 6 -6
10 -3 12 12 8 12 -3 27 -2 34 3 8 5 21 2 32 -9 16 -14 19 -14 27 -2 8 12 10
12 10 1 0 -7 6 -11 15 -7 8 3 15 1 15 -4 0 -6 -4 -10 -10 -10 -5 0 -10 -4 -10
-8 0 -5 13 -7 30 -4 19 3 30 0 30 -8 0 -7 -8 -10 -19 -7 -13 3 -18 1 -14 -9 2
-7 12 -10 20 -7 13 5 14 3 3 -18 -8 -17 -1 -12 22 14 19 20 38 37 42 37 4 0
-2 -10 -13 -22 -11 -11 -18 -26 -14 -31 4 -6 1 -7 -7 -2 -19 12 -1 -17 21 -33
10 -7 16 -20 14 -30 -2 -11 3 -19 10 -19 8 0 12 4 9 8 -2 4 5 7 16 6 19 -1 29
-17 11 -17 -5 0 -12 -7 -15 -16 -5 -14 -4 -15 9 -4 12 10 15 10 15 -1 0 -11 2
-11 10 1 5 8 10 11 10 6 0 -5 6 -3 14 3 11 9 15 8 20 -4 6 -16 26 -16 39 0 5
6 7 4 4 -5 -2 -10 -15 -15 -35 -14 -18 0 -32 -3 -32 -7 0 -4 -9 -5 -20 -2 -23
6 -53 -14 -43 -30 3 -6 1 -7 -6 -3 -9 6 -9 11 -1 21 8 10 4 12 -19 11 -16 0
-27 -4 -24 -9 2 -4 9 -4 15 -1 7 4 8 2 4 -4 -5 -9 -13 -9 -27 -2 -12 7 -19 7
-19 1 0 -5 9 -13 21 -16 11 -4 18 -9 16 -12 -3 -2 -16 1 -29 8 -22 12 -74 21
-64 11 3 -2 -4 -13 -15 -25 -21 -23 -24 -33 -9 -42 5 -3 7 0 4 8 -3 8 1 19 9
26 11 9 17 8 28 -6 12 -15 12 -16 -4 -10 -9 3 -17 2 -17 -3 0 -5 9 -12 21 -15
15 -5 17 -10 10 -19 -6 -7 -8 -16 -4 -19 3 -4 2 -7 -3 -7 -6 0 -19 -7 -30 -16
-18 -15 -18 -15 2 -5 12 6 23 9 25 7 2 -1 12 6 22 16 9 10 12 18 7 18 -12 0
-9 22 5 33 6 5 4 7 -5 4 -11 -3 -16 2 -16 18 0 22 1 23 28 9 31 -16 38 -27 10
-17 -15 6 -15 5 -3 -10 11 -14 16 -15 29 -5 13 11 14 11 8 0 -4 -7 -2 -20 6
-30 8 -10 1 -8 -19 7 -26 17 -33 19 -33 7 0 -8 10 -18 21 -21 13 -5 17 -10 11
-14 -12 -7 43 -83 56 -78 4 1 8 -2 10 -7 1 -6 -4 -11 -13 -12 -8 -1 -12 2 -9
8 5 7 2 8 -6 3 -9 -6 -11 -4 -5 5 5 8 4 11 -3 6 -6 -4 -8 -14 -5 -23 5 -12 3
-14 -7 -8 -8 5 -11 4 -7 -2 7 -11 36 -11 54 0 6 4 14 3 17 -2 4 -5 0 -12 -6
-15 -7 -3 -2 -3 11 0 15 4 21 2 17 -4 -3 -6 -2 -13 4 -17 6 -4 7 -11 4 -17 -4
-7 -2 -8 5 -4 9 6 9 11 0 22 -14 17 2 19 18 3 6 -6 9 -19 6 -28 -4 -14 -3 -14
6 -1 9 13 11 13 11 0 0 -9 3 -11 8 -5 4 6 21 11 37 11 l30 2 -27 -11 c-15 -6
-30 -17 -33 -25 -4 -12 -3 -13 9 -3 8 7 21 9 27 5 8 -4 9 -3 5 4 -4 7 -2 12 5
12 7 0 22 8 33 18 20 16 20 16 7 0 -9 -12 -10 -18 -2 -18 12 0 10 -27 -4 -50
-8 -13 -7 -13 10 0 14 11 19 12 22 3 5 -14 24 -18 22 -5 -3 18 2 32 11 32 6 0
9 -5 8 -12 -2 -7 9 -13 27 -13 27 -1 30 -4 30 -32 -1 -22 3 -29 13 -25 8 3 18
-1 23 -9 6 -10 9 -10 9 -1 0 6 7 12 15 12 8 0 15 -6 15 -12 0 -9 4 -8 10 2 9
13 10 13 10 0 0 -12 2 -12 9 -1 5 8 11 9 15 3 3 -6 2 -14 -4 -17 -8 -5 -7 -11
1 -21 10 -12 14 -12 20 -2 7 10 9 9 9 -3 0 -22 -11 -31 -24 -19 -7 5 -17 5
-26 -2 -12 -8 -12 -9 2 -4 20 6 34 -10 16 -17 -8 -4 -9 -6 -2 -6 6 -1 17 6 24
14 7 8 17 15 22 15 6 0 5 -7 -2 -15 -7 -9 -8 -15 -2 -15 5 0 12 6 15 14 4 9
14 12 29 9 13 -4 20 -2 15 3 -5 5 -12 9 -15 9 -4 0 -13 4 -21 9 -10 7 -12 6
-6 -4 5 -9 4 -11 -4 -6 -6 4 -9 12 -6 17 6 9 -8 13 -34 9 -12 -1 -12 1 -3 13
6 7 9 17 5 20 -3 4 -1 7 5 7 7 0 12 -4 12 -8 0 -8 29 -14 73 -15 15 0 27 -4
27 -8 0 -5 -3 -8 -7 -8 -23 4 -43 -2 -38 -11 4 -6 11 -8 16 -4 5 3 8 0 7 -7
-2 -6 3 -14 11 -17 8 -2 11 0 8 5 -3 5 0 10 8 10 13 0 12 -4 -2 -19 -13 -14
-13 -18 -2 -19 8 -1 25 -2 39 -2 20 -2 25 -7 24 -27 -2 -39 -3 -42 -15 -34 -8
5 -8 1 0 -13 6 -11 7 -24 3 -28 -7 -7 -8 -9 -12 -42 -1 -11 -3 -13 -7 -6 -3 9
-10 10 -24 3 -13 -7 -19 -7 -19 0 0 5 -7 10 -15 10 -20 0 -19 8 3 28 10 10 12
13 5 9 -6 -5 -17 -6 -23 -2 -6 4 -9 1 -8 -7 4 -16 -34 -11 -44 5 -11 17 -10
47 2 47 6 0 10 5 10 10 0 6 -7 10 -15 10 -8 0 -15 5 -15 10 0 6 -11 8 -25 6
-25 -5 -60 18 -51 33 3 4 -5 20 -17 35 -20 24 -25 26 -50 17 -24 -9 -27 -8
-27 11 0 11 8 27 18 35 9 8 11 12 5 8 -9 -4 -11 -1 -6 11 5 14 3 16 -11 11
-12 -5 -15 -3 -10 6 4 6 3 8 -1 4 -5 -4 -10 -14 -11 -23 -2 -12 0 -13 12 -3
12 10 13 9 9 -4 -4 -8 -15 -17 -26 -20 -15 -4 -23 1 -30 19 -5 15 -16 25 -26
23 -40 -4 -44 0 -26 28 12 19 14 24 4 19 -10 -7 -12 -5 -6 4 6 9 4 11 -4 6 -7
-5 -10 -14 -7 -21 6 -17 -20 -39 -35 -29 -8 4 -9 3 -5 -4 4 -7 2 -12 -4 -12
-6 0 -16 11 -22 25 -13 28 -24 30 -65 13 -15 -6 -32 -10 -38 -9 -5 2 -16 4
-23 5 -8 1 -17 8 -21 14 -13 21 -49 23 -56 3 -5 -18 -32 -24 -50 -11 -17 11
-83 12 -90 0 -5 -8 -11 -8 -21 1 -10 8 -14 8 -14 0 0 -6 -5 -11 -11 -11 -5 0
-8 4 -5 8 3 5 -1 9 -9 9 -8 0 -12 -4 -9 -9 3 -4 0 -8 -6 -8 -6 0 -8 -6 -5 -12
4 -7 -3 -2 -14 11 -16 17 -21 19 -21 8 0 -9 -5 -19 -12 -23 -7 -4 -8 -3 -4 4
5 8 0 12 -13 12 -12 0 -21 -5 -21 -11 0 -5 -5 -7 -10 -4 -6 4 -7 11 -4 17 5 7
2 8 -5 4 -7 -5 -10 -14 -8 -20 3 -7 -1 -13 -9 -13 -7 0 -11 4 -8 9 3 4 -2 5
-10 2 -9 -3 -16 -10 -16 -16 0 -5 -7 -2 -16 6 -17 18 -28 21 -19 7 3 -5 1 -12
-5 -16 -5 -3 -10 0 -10 7 0 9 -3 9 -10 -2 -5 -8 -10 -12 -10 -7 0 4 -15 0 -32
-10 -18 -9 -36 -16 -41 -15 -4 1 -2 -7 5 -17 9 -15 15 -17 25 -9 9 8 13 7 13
-2 0 -9 4 -9 18 1 15 12 16 12 5 -2 -10 -13 -49 -18 -60 -9 -2 2 -9 3 -15 4
-7 1 -12 8 -10 15 1 7 -2 10 -8 6 -8 -5 -8 -11 0 -20 7 -8 7 -15 1 -19 -5 -3
-12 0 -14 6 -4 10 -6 10 -6 1 -1 -7 -6 -13 -12 -13 -5 0 -8 4 -5 9 7 11 -20 8
-31 -3 -4 -4 -2 -6 6 -4 7 1 15 -2 18 -9 2 -6 -4 -10 -14 -9 -10 2 -12 1 -5
-1 18 -7 15 -23 -5 -24 -15 0 -15 -2 2 -8 26 -11 36 -5 29 17 -5 15 -4 15 6 2
10 -13 11 -12 6 3 -4 12 -2 16 6 11 7 -5 8 -2 3 7 -5 8 -4 11 0 6 5 -4 18 1
29 10 19 16 19 16 7 1 -11 -14 -10 -21 2 -38 7 -11 17 -17 22 -12 5 4 5 1 0
-7 -6 -11 -12 -9 -26 10 -10 13 -21 20 -26 16 -4 -5 -2 -12 6 -16 10 -6 9 -10
-4 -15 -10 -3 -13 -11 -9 -18 6 -10 4 -10 -8 0 -13 10 -17 10 -20 0 -4 -10 -8
-10 -22 1 -11 9 -20 11 -24 5 -4 -5 -14 -9 -22 -9 -16 1 -39 -23 -40 -40 0 -5
5 -3 11 5 9 12 10 11 6 -7 -3 -13 0 -26 5 -30 7 -4 8 -1 3 7 -6 9 -4 11 5 5 9
-5 10 -2 6 11 -3 11 -2 24 2 29 10 14 46 19 37 6 -3 -6 -13 -11 -21 -11 -8 0
-14 -5 -14 -11 0 -5 4 -8 9 -5 5 3 14 -1 21 -9 7 -8 16 -13 20 -10 10 6 7 -22
-4 -32 -4 -4 -6 -2 -4 6 1 7 -3 16 -11 19 -10 3 -11 0 -5 -9 6 -12 5 -12 -8
-1 -13 11 -18 11 -24 0 -5 -7 -9 -16 -9 -20 0 -3 -4 -10 -9 -15 -5 -5 -6 -3
-2 5 4 6 2 12 -3 12 -9 0 -16 -33 -9 -42 1 -2 -5 -14 -12 -28 -8 -14 -13 -29
-12 -34 2 -5 -3 -4 -12 3 -10 8 -16 9 -21 1 -3 -5 -1 -10 4 -10 8 0 7 -6 0
-19 -7 -10 -23 -18 -37 -17 -14 1 -27 -4 -29 -11 -3 -8 5 -11 24 -8 15 2 22 2
16 -1 -19 -8 -16 -27 3 -20 14 5 15 4 4 -9 -7 -9 -19 -14 -27 -11 -21 8 -15
-16 14 -59 15 -22 20 -34 11 -27 -11 9 -18 10 -23 2 -3 -6 -11 -8 -16 -5 -5 4
-9 -1 -9 -10 0 -9 4 -14 9 -11 5 3 8 -8 7 -25 -2 -21 4 -35 18 -45 11 -8 16
-14 12 -14 -5 0 -18 7 -28 17 -10 9 -18 11 -18 5 0 -6 9 -17 19 -24 16 -12 17
-16 6 -31 -12 -17 -14 -17 -21 5 -13 38 -13 52 -2 65 5 7 8 18 6 24 -2 7 -10
-2 -17 -19 -8 -18 -18 -32 -23 -32 -11 0 -47 -40 -48 -53 0 -4 11 4 23 19 14
16 29 24 35 20 16 -10 15 -27 -1 -20 -16 6 -39 -18 -35 -36 2 -7 -3 -15 -11
-18 -9 -3 -11 0 -6 8 5 9 4 11 -4 6 -6 -4 -9 -12 -6 -17 8 -12 35 -11 35 2 0
5 4 8 10 4 5 -3 7 -12 3 -20 -6 -18 13 -20 23 -3 4 6 3 8 -4 4 -9 -5 -10 13
-2 34 1 3 2 8 1 13 -2 16 17 6 22 -12 4 -15 1 -18 -12 -13 -14 5 -14 3 -3 -11
8 -8 20 -13 28 -10 17 6 17 1 3 -31 -7 -14 -16 -23 -20 -20 -5 3 -6 -2 -3 -10
3 -8 12 -12 20 -9 8 3 12 8 10 12 -7 10 23 45 31 36 5 -4 2 -10 -5 -12 -6 -3
-10 -9 -7 -13 9 -14 -37 -41 -50 -30 -7 5 -15 7 -18 3 -4 -3 -7 -1 -7 5 0 6
12 23 27 38 16 15 19 21 9 13 -17 -12 -19 -12 -12 1 4 9 2 8 -7 -2 -8 -10 -16
-16 -18 -13 -7 6 -12 -56 -8 -89 1 -7 11 -19 22 -25 11 -8 16 -8 12 -2 -3 6 1
11 9 11 26 0 18 -16 -26 -55 -31 -26 -34 -31 -13 -19 17 10 33 22 36 27 4 5 9
4 13 -1 3 -6 2 -13 -4 -17 -6 -4 -8 -11 -5 -16 11 -17 14 -49 4 -54 -13 -9
-11 -25 3 -25 6 0 9 3 5 6 -10 10 17 32 33 27 13 -4 13 -4 0 6 -13 9 -13 11 0
11 13 0 13 1 0 10 -11 7 -11 10 -2 10 7 0 10 5 7 10 -4 6 -1 18 6 26 10 13 9
14 -12 11 -22 -4 -24 -1 -25 30 -1 31 1 33 10 15 6 -10 18 -18 27 -17 16 3 20
-27 6 -41 -15 -15 -6 -26 10 -13 9 8 14 9 10 2 -4 -7 1 -14 14 -18 11 -4 18
-9 16 -12 -3 -2 -14 0 -26 6 -11 6 -22 7 -25 2 -3 -5 8 -14 24 -20 17 -5 30
-12 30 -15 0 -3 -12 -1 -26 4 -34 13 -39 13 -24 -5 7 -8 17 -12 23 -8 5 3 7 1
4 -4 -4 -6 2 -18 13 -28 21 -19 28 -9 10 13 -5 7 -2 6 7 -2 13 -12 14 -18 3
-30 -16 -20 -1 -20 24 -1 11 8 25 15 30 15 6 -1 -1 -8 -16 -16 -31 -16 -36
-26 -12 -22 10 2 19 -4 21 -12 4 -12 3 -13 -5 -1 -8 11 -12 10 -20 -6 -12 -22
-12 -64 0 -57 4 3 8 0 8 -7 0 -8 3 -9 13 0 27 22 25 -1 -1 -25 -15 -13 -24
-24 -20 -24 4 0 14 7 23 16 9 9 19 13 23 9 4 -4 -3 -15 -15 -25 l-22 -18 37 3
c49 4 50 4 29 16 -9 6 -15 14 -12 20 4 5 2 9 -3 9 -5 0 -9 7 -9 16 0 12 5 10
18 -7 22 -28 26 -13 5 17 -12 17 -13 21 -1 21 8 0 14 -3 13 -6 -2 -20 4 -30
15 -27 6 1 9 1 4 -1 -4 -3 -5 -9 -1 -14 3 -5 1 -9 -5 -9 -5 0 -9 -9 -8 -20 1
-12 7 -18 14 -16 19 8 25 -11 12 -35 -6 -12 -7 -19 -1 -15 5 3 15 -1 22 -9 7
-8 16 -12 21 -9 5 3 9 -3 10 -13 0 -11 3 -13 6 -5 3 7 -3 23 -13 34 -11 12
-13 18 -6 14 6 -4 12 -2 12 3 0 14 -13 14 -28 -1 -9 -9 -12 -9 -12 0 0 7 5 12
11 12 5 0 8 3 6 7 -3 5 2 15 11 23 14 13 15 12 9 -3 -3 -9 -2 -19 4 -22 5 -4
8 -12 7 -18 -5 -24 21 -55 42 -50 11 3 20 10 20 16 0 6 3 7 6 4 4 -4 1 -14 -7
-23 -11 -13 -11 -15 2 -14 27 4 50 0 45 -8 -3 -5 4 -16 15 -25 10 -9 19 -12
19 -7 0 6 9 6 22 1 13 -4 29 -6 36 -4 6 3 12 0 12 -7 0 -6 5 -8 11 -5 6 5 4
12 -8 21 -12 9 -13 13 -4 12 8 -2 23 -11 33 -21 15 -15 22 -16 34 -6 8 6 14 7
14 2 0 -10 293 -16 328 -6 12 3 19 9 17 14 -3 4 4 7 15 6 11 -1 20 -5 20 -9 0
-14 31 -8 36 7 6 14 8 14 18 -1 11 -15 14 -15 29 1 9 9 17 21 17 26 0 6 5 7
11 4 6 -4 19 2 30 14 14 15 27 19 43 15 18 -4 28 1 42 21 35 51 54 66 73 60
24 -7 51 19 44 43 -5 21 19 45 50 49 28 4 49 33 43 58 -4 14 6 30 35 54 24 21
39 44 39 57 0 13 4 34 10 48 6 17 6 27 -1 32 -6 4 -1 11 13 18 18 9 23 20 23
50 0 20 -3 40 -7 42 -14 9 -8 33 14 53 11 11 26 17 32 14 6 -4 6 0 -1 8 -11
13 -9 15 7 14 11 -1 23 -5 27 -10 5 -4 1 -5 -7 0 -8 5 -12 4 -7 0 4 -5 23 -9
42 -10 28 0 32 2 22 14 -8 10 -1 8 21 -4 27 -16 37 -17 62 -8 23 9 29 8 24 0
-5 -9 -4 -9 6 0 9 8 20 8 46 -3 18 -8 38 -14 43 -14 19 0 41 32 41 61 0 16 5
30 10 30 6 1 18 2 28 3 9 1 22 4 28 8 6 4 14 4 18 1 12 -12 36 -12 36 0 0 8 3
8 8 2 19 -26 188 -22 372 10 158 27 196 53 268 179 41 74 59 85 92 56 18 -15
18 -19 5 -24 -11 -4 -14 -2 -9 7 5 7 0 6 -12 -3 -18 -14 -18 -14 -4 4 12 16
12 18 1 11 -9 -5 -12 -4 -8 2 3 5 0 10 -8 10 -11 0 -12 -4 -4 -14 9 -10 6 -13
-12 -14 -22 0 -23 -1 -4 -8 38 -16 103 -1 90 20 -4 5 -1 9 5 9 7 0 10 -6 7
-14 -11 -27 7 -26 26 1 10 16 17 20 14 11 -3 -9 -3 -19 1 -21 4 -2 1 -2 -6 0
-9 2 -11 -3 -7 -16 5 -16 1 -18 -24 -17 -16 0 -28 3 -26 7 2 3 -2 6 -10 6 -8
0 -15 -4 -15 -9 0 -5 -4 -7 -9 -3 -5 3 -12 1 -15 -4 -4 -5 -2 -12 3 -15 5 -4
12 -2 16 4 3 5 11 10 17 10 6 0 6 -6 -2 -15 -7 -9 -10 -18 -6 -22 3 -3 6 0 6
7 0 9 5 7 16 -6 15 -18 15 -18 5 2 -15 30 -2 37 20 11 14 -16 17 -17 13 -4 -3
9 -1 17 5 17 6 0 11 -6 11 -12 0 -7 5 -5 11 5 5 9 15 17 22 17 8 0 8 -3 2 -8
-15 -11 -16 -29 0 -29 7 0 11 7 8 14 -3 8 -2 13 3 11 5 -2 9 2 9 7 0 6 -10 10
-22 9 -13 0 -23 4 -23 8 0 4 7 8 16 8 10 0 14 6 11 15 -4 8 -1 17 5 21 7 4 8
3 4 -4 -4 -7 -2 -12 3 -12 6 0 10 -6 9 -12 -2 -7 2 -12 9 -11 6 2 22 -10 35
-26 41 -48 117 -62 141 -25 15 24 15 92 -1 120 -6 12 -9 24 -6 26 2 3 -2 11
-11 18 -8 7 -15 16 -15 21 0 5 -16 33 -35 63 -19 30 -35 60 -35 66 0 5 -4 10
-8 10 -5 0 -17 18 -27 41 -17 38 -18 42 -2 67 12 21 24 27 50 27 20 0 38 3 42
7 4 4 18 38 31 77 31 91 78 177 95 173 8 -2 11 0 6 4 -4 4 3 18 15 31 23 24
45 32 31 11 -4 -7 -8 -22 -10 -33 -1 -11 1 -14 3 -7 7 15 34 16 34 1 0 -5 -4
-8 -8 -5 -5 3 -9 -1 -9 -9 0 -11 4 -12 14 -4 9 9 13 8 13 0 0 -6 -10 -16 -22
-21 -17 -6 -18 -9 -6 -9 9 -1 20 4 23 10 4 6 14 8 22 5 8 -3 11 -2 8 4 -3 5 4
7 15 5 11 -2 20 0 20 4 0 16 -13 20 -31 10 -15 -8 -18 -6 -13 8 5 15 4 16 -6
3 -10 -13 -11 -13 -7 0 2 8 10 14 17 12 8 -2 10 3 7 13 -10 24 0 18 23 -15 17
-24 19 -34 10 -45 -9 -10 -6 -15 11 -20 16 -6 18 -9 8 -16 -7 -4 -11 -11 -7
-14 3 -3 13 1 22 10 9 9 16 11 16 5 0 -6 -6 -13 -13 -16 -7 -2 -13 -14 -14
-25 -2 -18 0 -19 14 -7 14 11 15 11 8 -1 -6 -11 -4 -13 8 -8 9 3 16 3 14 -1
-2 -7 6 -12 24 -12 5 0 8 4 5 8 -2 4 0 14 5 22 7 11 8 9 6 -8 -5 -34 -27 -44
-55 -26 -23 15 -24 15 -17 -8 7 -20 6 -21 -8 -9 -9 7 -15 16 -13 20 7 11 -12
36 -21 28 -4 -5 -3 -11 2 -15 13 -9 17 -32 6 -32 -5 0 -12 5 -14 10 -3 6 -4 5
-3 -2 2 -7 9 -13 17 -13 8 -1 25 -7 38 -14 22 -12 23 -12 17 5 -7 17 -6 17 12
-1 19 -20 22 -50 8 -73 -4 -7 -3 -12 2 -12 5 0 14 10 20 23 6 12 11 16 11 10
1 -7 -8 -22 -18 -32 -19 -19 -18 -19 3 -30 20 -10 20 -11 -4 -5 -22 6 -23 5
-11 -10 11 -13 11 -19 0 -33 -13 -15 -12 -16 9 -11 13 4 20 2 16 -4 -3 -5 -17
-7 -30 -4 -22 6 -28 -1 -26 -25 1 -3 -6 -6 -13 -6 -10 0 -12 4 -5 12 5 7 7 15
3 18 -3 4 0 7 8 7 11 0 11 2 -1 10 -11 7 -11 10 -2 10 7 0 10 5 6 12 -4 7 -3
8 4 4 7 -4 10 1 7 14 -3 14 0 18 8 13 9 -5 9 -3 0 9 -7 8 -10 17 -7 21 3 3 -4
3 -15 0 -29 -7 -37 -22 -9 -16 19 4 20 3 8 -6 -11 -8 -12 -11 -2 -11 7 0 10
-5 7 -10 -5 -8 -11 -7 -21 1 -8 6 -17 9 -21 5 -3 -3 -1 -6 5 -6 6 0 9 -7 6
-15 -4 -8 -14 -15 -23 -15 -14 0 -14 -2 -1 -10 9 -6 17 -5 22 3 4 7 8 10 9 7
0 -3 2 -13 4 -22 2 -11 -3 -16 -16 -15 -10 1 -19 5 -19 9 0 4 -5 8 -11 8 -8 0
-8 -5 1 -15 14 -17 0 -21 -17 -4 -7 7 -13 7 -17 0 -4 -5 -14 -8 -24 -5 -14 5
-14 4 -2 -4 9 -7 19 -7 26 -2 13 12 24 3 24 -19 0 -13 -2 -13 -9 -3 -6 10 -13
3 -25 -23 -17 -34 -19 -35 -32 -18 -14 17 -15 17 -5 -2 9 -21 -9 -62 -22 -48
-4 3 -7 1 -7 -6 0 -8 8 -10 23 -6 21 7 21 6 -3 -19 -14 -15 -36 -28 -49 -31
-13 -2 -26 -7 -30 -11 -3 -3 3 -4 13 -2 10 1 21 -3 24 -11 3 -8 0 -11 -7 -7
-6 4 -11 2 -11 -4 0 -7 6 -10 14 -7 16 6 30 -19 16 -28 -4 -3 -11 1 -13 7 -4
10 -6 10 -6 1 -1 -7 -6 -13 -12 -13 -5 0 -7 5 -3 12 4 7 3 8 -4 4 -6 -4 -8
-14 -5 -23 5 -12 3 -14 -7 -8 -9 5 -11 4 -6 -4 4 -6 2 -19 -6 -28 -8 -11 -9
-14 -1 -10 7 5 16 -1 23 -12 6 -12 6 -22 1 -26 -5 -3 -11 3 -13 12 -3 15 -5
14 -10 -5 -4 -14 -2 -20 5 -15 7 4 8 0 4 -11 -4 -10 -3 -15 3 -11 15 9 12 -8
-6 -34 -16 -22 -16 -24 0 -33 9 -5 16 -14 16 -19 0 -6 -4 -7 -10 -4 -5 3 -7 0
-4 -9 4 -11 -1 -14 -19 -12 -23 3 -27 -6 -17 -34 1 -3 2 -9 1 -14 -1 -4 6 -14
15 -21 10 -7 19 -22 21 -35 3 -18 1 -21 -11 -11 -11 9 -15 8 -19 -3 -4 -11 -1
-13 10 -9 10 4 14 2 9 -5 -3 -6 -1 -14 5 -18 7 -4 9 -3 5 4 -3 6 -2 13 3 16 5
3 11 -1 15 -9 3 -8 -3 -19 -12 -24 -9 -6 -13 -11 -8 -11 6 0 1 -7 -10 -16 -18
-14 -18 -15 4 -4 15 7 22 8 22 0 0 -6 -10 -15 -22 -20 -18 -7 -19 -9 -5 -9 9
-1 17 -5 17 -10 0 -6 15 -24 32 -40 l33 -31 -33 4 c-19 3 -30 1 -26 -5 3 -6
-6 -8 -21 -5 -15 3 -25 2 -21 -1 12 -12 40 -12 53 -1 8 6 17 8 20 4 4 -4 1
-11 -6 -15 -10 -7 -8 -11 9 -16 18 -6 20 -9 9 -17 -11 -8 -10 -9 4 -4 11 4 17
0 18 -12 0 -14 2 -14 9 3 5 11 9 18 10 15 8 -28 5 -40 -11 -45 -10 -4 -18 -12
-16 -18 1 -7 -4 -11 -11 -9 -8 1 -11 -2 -7 -8 5 -8 11 -7 21 1 11 9 14 8 14
-2 0 -10 3 -10 12 -1 17 17 33 15 19 -2 -9 -11 -7 -19 13 -39 16 -16 27 -21
31 -14 3 7 3 2 1 -11 -3 -15 0 -20 7 -15 17 11 97 12 97 1 0 -4 -4 -8 -10 -8
-5 0 -10 -5 -10 -11 0 -6 7 -9 15 -6 8 4 17 1 21 -6 4 -7 3 -8 -1 -4 -5 4 -15
-3 -23 -15 -7 -13 -11 -15 -8 -6 3 10 2 17 -2 17 -19 -3 -22 3 -12 21 8 16 8
20 -4 20 -10 0 -13 -6 -10 -17 4 -11 2 -14 -3 -8 -12 15 -43 18 -43 4 0 -7 3
-9 6 -6 4 3 15 2 26 -4 15 -8 17 -13 7 -25 -8 -10 -8 -14 0 -14 6 0 11 5 11
12 0 6 7 3 15 -8 20 -26 19 -39 -2 -23 -17 13 -17 12 -4 -4 12 -15 17 -16 25
-5 6 7 19 14 29 16 15 3 16 0 5 -17 -6 -11 -15 -18 -18 -16 -4 2 -7 -2 -7 -10
0 -10 4 -12 12 -5 9 7 16 6 25 -5 7 -8 16 -15 21 -15 5 0 -1 10 -12 21 -17 17
-19 23 -8 30 8 5 17 3 21 -4 7 -12 12 -2 9 17 -1 5 6 3 16 -4 28 -22 29 -24
11 -17 -10 3 -20 2 -23 -4 -4 -5 -11 -6 -17 -3 -7 5 -8 2 -4 -5 5 -7 14 -10
22 -7 7 3 20 -1 28 -9 11 -11 16 -12 19 -2 4 9 6 9 6 0 1 -13 -33 -36 -41 -28
-3 3 -5 -2 -5 -10 0 -11 4 -12 11 -5 17 17 29 11 15 -7 -12 -16 -12 -17 2 -6
12 10 18 10 29 0 10 -9 11 -9 6 1 -10 17 33 10 44 -8 7 -11 11 -11 24 -1 8 7
19 10 25 7 5 -3 11 0 14 6 3 7 4 3 4 -9 -1 -15 -5 -19 -13 -13 -12 11 -24 3
-24 -14 0 -6 5 -4 10 4 5 8 10 10 10 4 0 -7 7 -15 16 -18 10 -4 13 -2 8 6 -5
8 -2 9 11 4 15 -5 16 -4 5 9 -11 13 -10 14 4 9 9 -3 16 -11 16 -18 0 -6 5 -4
11 4 8 12 9 10 4 -7 -5 -18 -3 -22 9 -17 9 3 13 11 9 17 -4 6 -1 7 6 3 7 -5
10 -13 8 -20 -3 -8 54 -12 209 -14 149 -3 214 0 214 7 0 6 7 11 15 11 8 0 15
-4 15 -10 0 -18 24 -10 49 15 22 24 37 29 72 26 8 -1 24 8 34 19 10 11 29 20
41 20 14 0 32 12 46 31 13 17 29 28 38 26 17 -4 31 7 49 42 7 12 23 26 37 31
14 6 30 23 35 40 7 19 18 30 29 30 12 0 22 12 30 38 7 20 23 47 36 60 14 13
24 34 24 50 0 16 8 32 20 40 15 9 20 22 18 47 -1 21 5 41 15 53 12 13 15 28
11 51 -4 19 -2 42 6 57 10 18 11 32 2 60 -8 28 -8 36 3 40 15 6 14 16 -8 64
-10 24 -12 39 -5 47 10 13 2 53 -12 53 -13 0 -18 38 -6 50 8 8 5 17 -15 34
-32 27 -41 50 -26 65 9 9 4 18 -21 38 -23 18 -32 32 -29 45 6 20 -16 48 -39
48 -7 0 -17 12 -20 28 -8 32 -23 54 -34 47 -12 -8 -41 6 -34 16 3 5 0 9 -5 9
-6 0 -11 9 -11 20 0 11 -6 21 -12 21 -40 4 -68 18 -68 34 0 25 -25 35 -47 20
-19 -14 -22 -12 -33 15 -13 31 -30 40 -70 36 -15 -2 -30 4 -38 16 -15 20 -52
24 -69 7 -13 -13 -33 -4 -33 16 0 19 -32 29 -41 12 -10 -16 -35 -16 -67 2 -12
6 -28 9 -34 5 -6 -4 -61 -9 -122 -10 -128 -4 -179 -12 -169 -27 3 -6 1 -7 -6
-3 -6 4 -9 11 -6 16 3 5 1 12 -5 15 -10 6 -87 162 -147 299 -15 33 -35 76 -45
94 -10 18 -18 39 -18 46 0 8 -6 16 -12 19 -10 4 -10 7 0 18 9 10 12 10 12 0 0
-7 3 -10 8 -8 12 8 132 20 209 21 41 0 73 5 73 11 0 6 5 3 10 -5 9 -13 10 -13
10 0 1 9 5 5 10 -8 6 -13 15 -22 22 -21 28 3 39 -1 32 -13 -6 -10 -5 -10 8 0
12 10 17 10 27 -1 6 -8 7 -18 3 -23 -4 -4 0 -3 10 4 9 7 19 9 22 4 3 -5 15 -8
28 -7 13 1 31 -4 40 -13 16 -13 17 -13 14 5 -4 20 28 30 40 12 3 -5 0 -8 -7
-7 -6 2 -14 -4 -16 -12 -4 -13 -3 -13 6 0 10 13 11 13 11 0 1 -9 6 -6 16 10 8
14 13 18 11 9 -3 -9 1 -16 9 -16 7 0 11 3 9 6 -2 4 10 7 26 7 16 1 29 -3 29
-8 0 -5 -4 -6 -10 -3 -5 3 -10 1 -10 -4 0 -14 17 -14 25 -2 3 6 15 7 28 5 12
-3 28 -6 35 -6 7 -1 10 -8 7 -16 -5 -13 -3 -13 11 -2 10 9 18 10 22 3 4 -5 17
-9 30 -8 14 1 22 -4 22 -14 0 -11 3 -12 8 -5 5 8 22 5 57 -12 59 -27 80 -31
45 -7 -49 32 -135 98 -138 106 -2 4 -8 7 -13 7 -4 0 -40 21 -79 46 -88 57
-183 101 -235 109 -55 8 -215 16 -370 18 -71 1 -136 6 -142 10 -7 5 -35 54
-63 110 -52 108 -101 199 -111 207 -3 3 -21 34 -40 69 -19 35 -46 73 -61 84
-16 12 -28 25 -28 29 0 14 -61 69 -70 63 -4 -3 -21 0 -36 6 -22 8 -25 12 -14
19 12 7 12 12 0 34 -14 27 -28 34 -80 41 -30 4 -31 3 -16 -14z m54 -4 c13 0
16 -13 4 -20 -4 -3 -18 4 -32 16 -20 16 -21 19 -5 12 11 -4 26 -8 33 -8z
m-251 -45 c-9 -2 -14 -8 -11 -14 4 -7 2 -8 -5 -4 -9 6 -9 11 0 22 6 7 16 11
23 7 7 -5 5 -9 -7 -11z m-37 -13 c0 -5 -6 -8 -12 -6 -7 1 -12 -4 -10 -11 1 -8
-2 -11 -8 -7 -7 4 -7 12 0 26 11 19 30 18 30 -2z m78 -14 c-3 -3 -13 -2 -22 1
-14 5 -15 9 -4 15 13 8 36 -6 26 -16z m-64 -119 c-3 -8 -15 -17 -27 -20 -21
-5 -20 -4 3 14 30 24 31 24 24 6z m142 -88 c4 -7 3 -8 -4 -4 -8 5 -11 0 -8
-16 3 -13 5 -23 6 -23 1 0 3 -8 5 -18 2 -9 -1 -15 -6 -11 -5 3 -7 8 -5 12 5 9
-20 33 -27 25 -3 -2 -4 3 -3 12 1 9 9 21 17 26 18 11 16 11 25 -3z m-32 -63
c3 -8 2 -14 -2 -14 -4 1 -9 1 -12 -1 -3 -1 -16 -3 -29 -6 l-24 -4 24 20 c29
24 35 24 43 5z m6 -55 c13 7 21 6 26 -2 4 -7 4 -10 -1 -6 -4 4 -17 2 -29 -4
-11 -7 -24 -12 -28 -13 -14 0 -19 -13 -7 -21 7 -4 10 -3 6 2 -3 5 3 10 13 10
10 0 16 -4 14 -8 -5 -8 5 -11 39 -11 9 0 17 -4 17 -9 0 -5 -7 -8 -16 -6 -10 2
-19 -3 -22 -11 -2 -8 0 -11 5 -8 5 3 10 0 10 -8 0 -11 -4 -12 -13 -4 -7 6 -15
6 -18 1 -6 -9 -47 -11 -45 -2 0 3 -4 17 -10 32 -9 23 -7 31 12 52 12 14 23 21
25 16 2 -6 11 -6 22 0z m55 -20 c-3 -5 -12 -10 -18 -10 -7 0 -6 4 3 10 19 12
23 12 15 0z m-356 -161 c-7 -4 -17 -5 -22 -2 -5 3 -3 9 4 14 7 4 17 5 22 2 5
-3 3 -9 -4 -14z m105 3 c2 -4 -4 -8 -14 -8 -10 0 -16 4 -14 8 3 4 9 8 14 8 5
0 11 -4 14 -8z m-391 -97 c-3 -9 -8 -14 -10 -11 -3 3 -2 9 2 15 9 16 15 13 8
-4z m-1568 -114 c3 -5 0 -13 -6 -17 -8 -5 -9 -3 -4 6 6 10 4 12 -9 7 -10 -4
-15 -3 -11 3 8 13 22 13 30 1z m3189 -13 c-5 -8 -2 -9 10 -5 10 4 23 -1 33
-13 15 -18 17 -18 30 -2 12 16 12 15 6 -2 -4 -12 -3 -17 4 -13 5 3 10 0 10 -8
0 -11 -4 -12 -14 -4 -7 6 -13 8 -13 4 0 -4 -7 -1 -16 6 -17 14 -38 21 -66 20
-10 0 -18 5 -18 10 0 6 4 8 9 4 5 -3 12 -1 16 5 3 5 8 10 11 10 3 0 2 -5 -2
-12z m152 -50 c0 -10 -1 -18 -3 -18 -1 0 -7 8 -12 18 -7 13 -6 19 2 19 7 0 13
-9 13 -19z m-3185 -21 c-10 -9 -11 -8 -5 6 3 10 9 15 12 12 3 -3 0 -11 -7 -18z
m44 -27 c-6 -10 9 -15 30 -10 6 1 7 -2 2 -6 -9 -9 33 -55 44 -48 11 7 49 -14
49 -27 0 -6 -7 -3 -16 5 -19 19 -35 21 -28 3 3 -8 -1 -14 -9 -14 -8 0 -14 7
-13 16 1 9 -5 15 -12 13 -8 -1 -11 2 -7 8 9 14 -8 13 -24 -2 -11 -10 -12 -10
-7 -1 4 7 -2 20 -13 29 -19 16 -18 44 1 44 5 0 6 -4 3 -10z m82 -30 c1 -11 -2
-20 -7 -20 -6 0 -7 17 -1 38 3 8 7 -1 8 -18z m660 -56 c-3 -3 -12 -4 -19 -1
-8 3 -5 6 6 6 11 1 17 -2 13 -5z m1718 -43 c-3 -6 -11 -11 -16 -11 -5 0 -4 6
3 14 14 16 24 13 13 -3z m28 -36 c-9 -16 -10 -16 -16 -1 -5 12 -3 15 5 10 8
-5 9 -1 4 12 -5 14 -4 16 4 7 8 -7 9 -17 3 -28z m-60 -4 c-37 -40 -43 -50 -34
-56 5 -3 12 -1 16 5 4 6 11 8 16 5 5 -4 8 4 6 16 -1 14 4 23 16 24 9 2 17 -1
17 -7 0 -6 -7 -8 -15 -4 -10 4 -14 -1 -12 -17 1 -12 -4 -22 -11 -22 -8 0 -19
-10 -25 -21 -9 -15 -17 -19 -31 -14 -14 5 -16 9 -7 14 9 6 9 11 0 22 -9 11 -8
14 5 14 11 0 14 5 10 12 -4 6 -3 8 3 5 6 -4 18 4 27 18 9 14 21 25 26 25 6 0
2 -9 -7 -19z m-2516 -6 c0 -8 -4 -12 -9 -9 -5 3 -6 10 -3 15 9 13 12 11 12 -6z
m2594 -32 c-6 -11 -11 -13 -11 -5 0 7 -5 10 -12 6 -7 -4 -8 -3 -4 5 4 6 12 9
17 6 5 -4 9 -1 9 6 0 7 3 10 6 6 3 -3 1 -14 -5 -24z m-44 -34 c0 -21 -3 -26
-9 -16 -4 9 -5 22 -2 31 9 23 11 20 11 -15z m33 7 c0 -3 -4 -8 -10 -11 -5 -3
-10 -1 -10 4 0 6 5 11 10 11 6 0 10 -2 10 -4z m30 -6 c0 -5 -4 -10 -10 -10 -5
0 -10 5 -10 10 0 6 5 10 10 10 6 0 10 -4 10 -10z m-25 -39 c-8 -14 -25 -14
-25 0 0 5 5 7 10 4 6 -3 10 -1 10 6 0 7 3 10 6 6 3 -3 3 -10 -1 -16z m-890 -1
c-3 -5 -1 -10 4 -10 6 0 11 5 11 12 0 6 6 3 14 -8 8 -10 18 -16 22 -11 4 4 2
7 -4 7 -7 0 -12 5 -12 12 0 7 6 6 18 -4 9 -9 24 -13 32 -11 10 3 9 0 -3 -7 -9
-6 -15 -15 -12 -20 3 -5 1 -12 -5 -15 -6 -4 -9 -1 -8 7 4 17 -24 17 -30 -1 -3
-9 0 -11 8 -6 9 6 11 4 5 -5 -6 -10 -11 -9 -21 5 -7 10 -11 22 -8 26 3 5 0 9
-5 9 -15 0 -14 -33 2 -49 10 -11 8 -11 -10 0 -15 9 -20 20 -17 38 3 19 2 22
-5 11 -5 -8 -7 -18 -5 -22 3 -4 -1 -8 -8 -8 -8 -1 -6 -6 6 -15 11 -8 16 -18
11 -22 -4 -5 -10 -3 -12 4 -2 7 -12 9 -21 6 -15 -4 -15 -3 -2 7 13 10 11 11
-7 7 -35 -8 -27 10 19 43 43 32 53 36 43 20z m-85 -4 c0 -11 -48 -55 -53 -49
-4 3 6 17 21 29 28 25 32 27 32 20z m1020 -31 c0 -5 -5 -3 -10 5 -5 8 -10 20
-10 25 0 6 5 3 10 -5 5 -8 10 -19 10 -25z m-2500 -5 c0 -5 -5 -10 -11 -10 -5
0 -7 5 -4 10 3 6 8 10 11 10 2 0 4 -4 4 -10z m2480 -1 c0 -4 -11 -6 -25 -5
-14 0 -25 4 -25 8 0 4 11 7 25 6 14 -1 25 -5 25 -9z m-865 -39 c-3 -5 -1 -10
6 -10 7 0 10 -2 7 -5 -3 -3 -13 -2 -22 1 -14 5 -15 9 -4 15 17 11 20 11 13 -1z
m-1534 -43 c3 -5 9 -8 13 -8 18 3 26 0 26 -8 0 -15 -24 -7 -54 17 -16 12 -33
22 -37 22 -5 0 -9 5 -9 10 0 10 49 -17 61 -33z m2393 31 c-5 -8 -2 -9 9 -5 10
3 17 2 17 -3 0 -12 -27 -13 -34 -1 -3 4 -3 11 1 15 10 10 15 7 7 -6z m64 -13
c-3 -3 -9 2 -12 12 -6 14 -5 15 5 6 7 -7 10 -15 7 -18z m-2433 5 c3 -6 -1 -7
-9 -4 -18 7 -21 14 -7 14 6 0 13 -4 16 -10z m1478 -4 c4 -10 1 -13 -9 -9 -7 3
-14 9 -14 14 0 14 17 10 23 -5z m-1440 -21 c-3 -9 -8 -14 -10 -11 -3 3 -2 9 2
15 9 16 15 13 8 -4z m2419 6 c-8 -4 -12 -10 -10 -13 1 -2 -5 -12 -14 -22 -10
-10 -18 -13 -18 -7 0 5 8 15 18 20 9 6 13 11 9 11 -13 0 3 20 16 20 8 0 8 -3
-1 -9z m311 -16 c-3 -9 -8 -14 -10 -11 -3 3 -2 9 2 15 9 16 15 13 8 -4z
m-2643 -65 c0 -5 -7 -7 -15 -4 -8 4 -15 8 -15 10 0 2 7 4 15 4 8 0 15 -4 15
-10z m107 -52 c-3 -8 -6 -5 -6 6 -1 11 2 17 5 13 3 -3 4 -12 1 -19z m-834 -1
c3 -8 -1 -14 -9 -14 -15 0 -18 9 -7 20 9 9 10 9 16 -6z m-36 -26 c1 -17 -1
-21 -5 -11 -7 16 -32 25 -32 12 0 -4 -9 -8 -20 -9 -27 -2 -25 4 6 20 38 20 50
17 51 -12z m3070 3 c-3 -3 -12 -4 -19 -1 -8 3 -5 6 6 6 11 1 17 -2 13 -5z m-7
-38 c0 -3 -4 -8 -10 -11 -5 -3 -10 -1 -10 4 0 6 5 11 10 11 6 0 10 -2 10 -4z
m639 -38 c7 -11 7 -18 1 -18 -5 0 -10 5 -10 11 0 5 -5 7 -12 3 -6 -4 -8 -3 -5
2 3 6 -5 10 -18 10 -19 0 -24 -6 -27 -33 -2 -18 -1 -33 3 -33 6 0 23 -111 19
-126 -1 -4 4 -11 12 -15 8 -6 9 -9 1 -9 -6 0 -9 -9 -6 -20 7 -25 -15 -27 -23
-2 -8 25 -20 54 -33 82 -7 14 -14 35 -16 45 -2 11 -4 21 -4 23 -1 1 -1 4 -2 7
0 2 -9 21 -19 42 -10 21 -16 41 -14 45 3 4 36 7 73 6 54 -1 71 -5 80 -20z
m-166 -6 c-2 -7 2 -12 7 -12 6 0 9 -3 8 -7 -1 -5 4 -21 11 -37 6 -16 13 -39
14 -50 1 -12 6 -24 10 -27 5 -4 10 -18 10 -32 1 -14 5 -23 10 -20 4 2 7 0 7
-6 0 -5 3 -16 6 -24 4 -10 -4 -16 -26 -19 -28 -4 -34 -1 -48 29 -9 18 -20 33
-24 33 -5 0 -6 5 -3 10 3 6 1 10 -5 10 -6 0 -9 4 -6 9 3 4 -4 25 -14 47 -23
44 -25 58 -8 48 7 -4 8 -3 4 5 -4 6 -12 9 -17 6 -17 -11 -22 26 -4 38 21 16
71 15 68 -1z m-2403 4 c0 -2 -7 -7 -16 -10 -8 -3 -12 -2 -9 4 6 10 25 14 25 6z
m2564 -66 c-9 -16 -13 -34 -10 -39 4 -5 2 -12 -3 -16 -6 -3 -7 -13 -4 -22 5
-12 10 -6 20 21 7 21 10 42 7 47 -3 5 3 9 13 10 10 0 13 3 6 5 -16 7 3 50 25
59 12 5 12 1 -3 -15 -18 -20 -8 -29 12 -9 7 7 12 6 17 -6 4 -11 2 -14 -6 -9
-8 5 -9 2 -5 -9 3 -9 2 -19 -4 -23 -6 -3 -8 -12 -5 -19 3 -8 -1 -19 -9 -25
-11 -9 -26 -49 -25 -65 0 -3 -6 -12 -14 -20 -8 -8 -16 -20 -19 -27 -9 -27 -16
0 -8 29 7 22 5 35 -5 44 -7 8 -16 39 -20 69 -3 30 -8 58 -11 63 -12 21 11 25
37 7 27 -19 28 -21 14 -50z m-749 41 c-3 -5 5 -17 17 -25 12 -9 18 -16 14 -16
-5 0 -18 7 -28 17 -19 17 -26 5 -7 -14 6 -6 8 -16 4 -23 -5 -8 -11 -6 -21 7
-11 15 -13 15 -14 3 0 -9 5 -21 12 -28 7 -7 8 -12 4 -12 -5 0 -15 8 -22 18
-12 15 -13 14 -8 -11 3 -19 0 -29 -11 -33 -8 -3 -13 -10 -10 -15 3 -4 12 -6
19 -3 7 3 19 -3 27 -13 13 -16 12 -17 -2 -5 -30 23 -68 1 -46 -28 11 -13 10
-13 -6 -1 -9 8 -20 11 -24 7 -4 -3 2 -13 13 -20 15 -12 17 -17 7 -27 -10 -10
-16 -9 -27 7 -8 10 -18 16 -22 12 -4 -4 7 -20 24 -36 18 -17 25 -29 16 -29 -8
0 -14 4 -14 9 0 5 -5 6 -10 3 -6 -4 -7 -11 -4 -17 4 -6 2 -8 -3 -5 -6 4 -16 0
-22 -7 -8 -10 -9 -16 -1 -21 5 -3 10 -2 10 3 0 5 10 12 23 15 21 6 21 5 3 -8
-18 -13 -18 -15 -2 -21 11 -4 16 -14 13 -26 -4 -14 -1 -18 9 -14 8 3 14 1 14
-5 0 -6 -8 -9 -17 -7 -10 2 -17 11 -15 20 1 8 -5 22 -15 29 -15 12 -16 12 -10
-4 4 -10 2 -28 -4 -39 -10 -18 -9 -20 5 -15 10 4 15 3 11 -2 -3 -5 0 -11 7
-13 7 -3 5 -7 -6 -11 -9 -4 -15 -3 -12 2 5 8 -16 23 -36 25 -14 2 -20 15 -12
28 12 19 11 32 -3 43 -11 8 -10 14 2 33 9 12 20 20 25 17 17 -11 28 20 16 44
-12 22 -10 26 21 54 23 20 31 33 24 40 -7 7 -2 20 14 39 14 16 25 34 25 39 0
6 4 8 9 5 5 -3 16 5 25 19 15 23 35 37 21 16z m-1682 -20 c-3 -11 0 -10 13 4
13 16 16 17 11 3 -3 -10 -2 -20 3 -23 5 -3 11 3 13 12 4 16 5 16 6 1 0 -9 -3
-20 -9 -23 -14 -9 -12 -22 3 -22 7 0 25 -3 41 -7 17 -4 25 -3 22 3 -4 5 -2 12
3 16 6 3 8 -3 6 -15 -4 -23 -2 -24 28 -9 21 10 21 10 3 -5 -11 -9 -27 -14 -37
-11 -25 8 -48 -5 -43 -23 2 -9 -2 -3 -10 13 -12 24 -15 26 -16 10 0 -17 -2
-18 -11 -5 -9 13 -10 13 -6 0 2 -8 10 -14 16 -12 6 1 11 -2 11 -6 0 -5 -14 -9
-32 -10 -17 0 -35 -7 -39 -14 -7 -11 -9 -11 -9 0 0 7 -4 10 -10 7 -13 -8 -13
34 1 74 9 26 14 29 25 20 12 -10 13 -8 5 13 -7 18 -6 25 4 25 7 0 11 -7 8 -16z
m2559 7 c-17 -17 -15 -33 3 -18 13 11 14 10 9 -6 -6 -16 -5 -17 7 -6 7 6 17
12 23 12 5 0 1 -6 -9 -14 -14 -10 -25 -11 -38 -4 -22 12 -47 -5 -26 -17 8 -5
10 -4 5 3 -4 7 -2 12 3 12 6 0 11 -5 11 -11 0 -5 5 -7 12 -3 8 5 9 2 4 -12 -6
-15 -2 -14 20 6 15 14 24 20 21 13 -4 -6 -4 -13 0 -16 5 -2 4 -3 -2 -2 -5 1
-17 -6 -26 -15 -15 -16 -15 -18 1 -28 16 -10 17 -14 3 -56 -9 -25 -19 -44 -23
-41 -4 2 -5 -6 -3 -18 4 -24 -12 -56 -22 -45 -4 4 -8 18 -9 31 -1 18 -4 22
-13 16 -7 -7 -14 -6 -18 1 -4 7 -18 10 -31 7 -27 -5 -30 9 -9 37 8 11 15 28
15 38 0 10 5 18 11 18 5 0 7 5 4 10 -3 6 1 13 9 16 9 3 13 10 10 15 -3 5 -1 9
5 9 6 0 8 6 5 13 -5 14 34 65 51 66 5 1 4 -4 -3 -11z m-2474 -43 c-3 -3 -9 2
-12 12 -6 14 -5 15 5 6 7 -7 10 -15 7 -18z m-924 -15 c4 0 4 5 1 10 -9 14 19
12 33 -2 7 -7 12 -18 12 -25 0 -11 -5 -11 -22 -3 -21 10 -21 10 -6 -3 10 -8
15 -16 12 -19 -2 -3 7 -3 21 0 17 3 23 8 17 16 -17 21 -20 43 -7 43 7 0 10 -9
8 -21 -4 -21 -4 -21 12 -1 17 22 17 25 1 -52 -1 -7 -6 -16 -10 -20 -4 -4 -6
-2 -4 6 2 7 -3 16 -9 18 -10 3 -10 -3 -1 -27 7 -22 7 -35 0 -42 -6 -6 -8 -17
-5 -24 3 -8 0 -14 -6 -14 -6 0 -13 0 -16 0 -3 0 -5 3 -4 6 0 4 -3 10 -8 13
-15 11 -55 140 -47 153 5 10 4 11 -6 1 -8 -7 -14 -22 -15 -33 -1 -11 1 -18 4
-15 6 7 51 -116 46 -125 -2 -4 -41 -6 -86 -6 -79 1 -82 2 -86 25 -2 14 -7 29
-12 35 -4 6 -11 26 -14 43 -6 29 -3 35 22 47 16 9 31 13 33 10 3 -2 18 2 34
11 35 18 48 19 38 3 -4 -6 4 -4 17 5 21 15 25 16 35 2 6 -8 14 -15 18 -15z
m-599 10 c3 -5 1 -10 -4 -10 -6 0 -11 5 -11 10 0 6 2 10 4 10 3 0 8 -4 11 -10z
m769 -18 c2 -4 -5 -9 -17 -9 -17 -2 -19 0 -7 7 18 12 18 12 24 2z m2376 4 c0
-3 -4 -8 -10 -11 -5 -3 -10 -1 -10 4 0 6 5 11 10 11 6 0 10 -2 10 -4z m938
-21 c1 -8 3 -22 4 -30 1 -8 6 -15 12 -15 6 0 3 -5 -6 -11 -10 -5 -18 -15 -18
-21 0 -6 -8 -17 -17 -25 -10 -8 -12 -11 -5 -8 11 6 11 3 1 -13 -7 -12 -16 -19
-20 -16 -4 2 -6 -4 -5 -13 2 -10 -2 -21 -8 -25 -21 -14 -27 -8 -15 15 7 12 12
23 11 25 -7 10 0 22 10 16 7 -5 8 -3 3 6 -4 7 -2 16 6 21 11 6 11 9 1 9 -9 0
-9 6 3 23 8 13 12 27 8 32 -5 4 -2 5 5 1 8 -5 13 -3 11 5 -3 24 1 39 9 39 5 0
9 -7 10 -15z m33 0 c5 4 6 -1 2 -10 -5 -13 -7 -14 -14 -3 -5 7 -8 18 -8 23 0
6 3 4 6 -3 2 -6 9 -10 14 -7z m-3386 -6 c4 -6 14 -8 24 -4 12 5 13 3 4 -6 -6
-6 -9 -17 -7 -24 3 -7 0 -16 -7 -21 -7 -4 -10 -3 -6 4 4 5 4 17 1 26 -5 13 -8
13 -20 1 -20 -19 -18 -30 2 -14 15 12 16 11 10 -9 -4 -13 -3 -22 3 -22 5 0 2
-13 -7 -30 -17 -30 -41 -40 -43 -17 -1 6 -3 22 -4 35 -1 12 2 25 6 28 5 3 9
14 9 25 0 10 3 18 8 18 19 -3 25 2 12 11 -9 6 -10 10 -3 10 6 0 15 -5 18 -11z
m3315 3 c0 -13 -12 -22 -22 -16 -10 6 -1 24 13 24 5 0 9 -4 9 -8z m-946 -18
c3 -8 2 -12 -4 -9 -6 3 -10 10 -10 16 0 14 7 11 14 -7z m-3140 -10 c3 -8 2
-12 -4 -9 -6 3 -10 10 -10 16 0 14 7 11 14 -7z m856 4 c0 -4 -4 -8 -9 -8 -6 0
-12 4 -15 8 -3 5 1 9 9 9 8 0 15 -4 15 -9z m2347 5 c-4 -3 -1 -13 6 -22 11
-14 10 -14 -5 -2 -16 12 -16 31 -1 31 4 0 3 -3 0 -7z m-2773 -17 c-3 -8 2 -26
12 -41 22 -33 14 -41 -19 -15 -42 33 -44 22 -3 -18 22 -21 41 -49 43 -62 2
-13 1 -21 -3 -18 -3 3 -7 14 -8 25 -2 10 -11 18 -22 18 -10 0 -25 4 -33 9 -9
6 -12 5 -8 -1 4 -6 0 -13 -8 -17 -8 -3 -15 -1 -15 5 0 6 -4 7 -10 4 -5 -3 -10
-1 -10 4 0 6 -5 10 -12 9 -18 -4 -21 30 -4 47 8 8 22 15 31 15 9 0 14 4 10 9
-6 11 32 41 52 41 7 0 10 -6 7 -14z m3775 1 c8 -10 7 -14 -2 -14 -8 0 -14 6
-14 14 0 7 1 13 2 13 2 0 8 -6 14 -13z m-3374 -8 c4 -6 13 -8 21 -5 8 3 13 2
13 -2 -3 -20 3 -23 18 -11 15 12 16 12 8 -1 -6 -8 -10 -22 -10 -31 0 -21 -25
-50 -36 -43 -5 3 -7 11 -3 17 3 7 0 5 -8 -4 -14 -18 -41 -14 -32 4 3 7 -2 3
-10 -7 -9 -11 -19 -17 -22 -13 -4 4 -1 13 6 22 7 8 9 15 4 15 -5 0 0 7 10 15
11 8 16 15 10 15 -5 0 -2 4 6 9 8 6 18 7 23 4 5 -3 5 -8 -1 -12 -20 -12 -17
-34 5 -36 12 -1 19 3 16 8 -3 6 -1 7 6 3 7 -5 10 -2 9 6 -3 15 -39 44 -50 40
-5 -1 -8 3 -8 8 0 13 17 13 25 -1z m2655 1 c0 -5 -5 -10 -11 -10 -5 0 -7 5 -4
10 3 6 8 10 11 10 2 0 4 -4 4 -10z m685 1 c-3 -5 0 -13 6 -17 7 -4 -3 -19 -27
-40 -36 -32 -62 -48 -36 -22 7 7 12 21 12 33 0 16 2 17 10 5 8 -13 10 -12 10
3 0 9 5 17 10 17 6 0 9 3 9 8 -2 12 1 22 7 22 3 0 3 -4 -1 -9z m-970 -29 c-3
-3 -11 0 -18 7 -9 10 -8 11 6 5 10 -3 15 -9 12 -12z m301 9 c-4 -5 0 -11 6
-14 7 -2 9 -8 5 -13 -9 -10 -28 16 -21 28 3 4 7 8 10 8 3 0 3 -4 0 -9z m-381
-11 c4 -6 10 -8 14 -6 4 3 13 1 20 -4 9 -5 3 -7 -17 -7 -17 1 -28 5 -26 9 2 3
-2 9 -8 11 -9 4 -10 6 -1 6 6 1 15 -4 18 -9z m339 -5 c-4 -8 -10 -15 -16 -15
-5 0 -7 -4 -3 -9 3 -5 0 -13 -6 -17 -8 -4 -7 -9 2 -15 10 -6 16 -2 21 14 5 17
6 15 5 -10 -1 -22 -5 -29 -11 -23 -19 19 -29 10 -12 -9 11 -12 24 -17 34 -13
14 5 15 4 2 -10 -13 -14 -16 -14 -28 3 -7 11 -18 16 -24 13 -7 -5 -8 -2 -3 6
6 10 4 12 -7 7 -20 -7 -18 21 3 34 8 5 10 9 5 9 -5 0 1 11 14 25 27 29 32 31
24 10z m-3444 1 c0 -2 -8 -10 -17 -17 -16 -13 -17 -12 -4 4 13 16 21 21 21 13z
m830 -5 c0 -5 -7 -12 -16 -15 -14 -5 -15 -4 -4 9 14 17 20 19 20 6z m75 -26
c2 -14 -1 -25 -7 -25 -5 0 -6 9 -3 21 5 14 4 19 -4 15 -7 -5 -9 -1 -5 9 8 20
16 12 19 -20z m2618 10 c-7 -21 -12 -19 -10 4 0 11 5 18 9 15 4 -3 5 -11 1
-19z m732 16 c-9 -8 -36 -10 -30 -2 2 4 11 8 20 8 8 0 13 -3 10 -6z m-67 -26
c0 -13 -7 -30 -14 -36 -12 -10 -13 -8 -7 7 6 17 5 17 -10 5 -9 -7 -14 -18 -10
-24 3 -6 1 -7 -6 -3 -6 4 -8 12 -5 18 4 7 2 8 -4 4 -6 -4 -9 -13 -6 -20 3 -8
0 -17 -7 -22 -7 -4 -10 -3 -5 4 3 6 -1 15 -9 20 -13 7 -11 11 12 22 15 7 33
14 38 15 6 0 9 7 7 14 -1 7 2 10 8 6 5 -3 10 -1 10 4 0 6 2 11 4 11 2 0 4 -11
4 -25z m127 -3 c-3 -3 -11 0 -18 7 -9 10 -8 11 6 5 10 -3 15 -9 12 -12z
m-3370 -2 c-3 -5 -12 -10 -18 -10 -7 0 -6 4 3 10 19 12 23 12 15 0z m2202 -5
c0 -8 -4 -12 -9 -9 -5 3 -6 10 -3 15 9 13 12 11 12 -6z m-3200 -1 c-3 -3 -12
-4 -19 -1 -8 3 -5 6 6 6 11 1 17 -2 13 -5z m4334 -17 c-10 -9 -11 -8 -5 6 3
10 9 15 12 12 3 -3 0 -11 -7 -18z m-1174 -2 c0 -8 -4 -15 -9 -15 -10 0 -11 14
-1 23 9 10 10 9 10 -8z m-3189 -9 c-10 -7 -15 -16 -12 -19 3 -3 -5 -10 -18
-17 -22 -11 -22 -10 -4 4 11 9 16 16 10 16 -5 0 0 7 10 15 11 8 22 15 25 15 3
0 -2 -7 -11 -14z m378 -2 c-3 -9 -2 -12 5 -9 15 10 39 -14 32 -33 -6 -15 -4
-15 9 -4 11 9 18 10 23 2 3 -6 10 -8 14 -5 5 2 13 -8 20 -23 10 -24 10 -25 -2
-9 -8 9 -17 17 -21 17 -4 0 -6 -8 -4 -17 2 -11 -3 -18 -12 -18 -8 0 -15 5 -15
10 0 6 -4 16 -8 23 -9 14 -27 7 -27 -11 0 -7 4 -6 10 3 8 13 10 13 10 -2 0
-23 -16 -32 -24 -12 -3 8 -10 12 -16 9 -12 -7 -12 -3 -4 19 3 9 14 16 23 16
13 1 13 3 -4 16 -11 8 -25 12 -31 10 -7 -3 -10 3 -7 15 3 10 12 19 20 19 10 0
13 -6 9 -16z m114 -15 c0 -4 -9 -7 -19 -6 -11 0 -18 4 -16 7 6 9 35 8 35 -1z
m2728 -14 c-3 -3 -9 2 -12 12 -6 14 -5 15 5 6 7 -7 10 -15 7 -18z m812 8 c0
-14 -26 -18 -34 -4 -7 11 0 18 19 18 8 0 15 -6 15 -14z m160 1 c0 -2 -13 -10
-30 -19 -33 -17 -36 -14 -18 14 7 11 19 16 30 13 10 -2 18 -6 18 -8z m115 -9
c0 -11 5 -28 14 -38 11 -14 12 -20 2 -30 -10 -9 -11 -8 -6 8 6 16 3 16 -14 -5
-23 -28 -29 -59 -8 -42 8 7 18 6 32 -4 19 -14 19 -15 -8 -10 -23 4 -28 2 -23
-10 3 -9 1 -12 -4 -9 -6 3 -10 1 -10 -5 0 -6 -5 -8 -11 -4 -7 4 -7 10 -1 16
13 13 4 40 -10 32 -6 -4 -5 3 2 15 6 12 15 19 21 16 5 -4 9 -1 9 5 0 6 -6 10
-12 9 -25 -3 -39 1 -33 10 3 6 14 8 25 6 11 -2 23 1 26 7 5 7 2 8 -7 3 -12 -8
-12 -6 -1 8 13 15 9 37 -7 37 -4 0 -16 -7 -27 -15 -19 -15 -19 -15 1 -8 19 6
19 5 -2 -18 -16 -18 -19 -28 -12 -42 6 -9 7 -22 4 -28 -4 -5 -3 -15 2 -22 16
-21 9 -42 -14 -45 -13 -2 -23 2 -23 8 0 7 7 9 16 6 8 -3 12 -2 9 4 -3 6 -1 10
6 10 20 0 1 14 -24 17 -17 2 -19 1 -7 -6 12 -9 12 -11 -3 -17 -24 -9 -35 4
-52 58 -12 42 -12 45 9 58 30 20 45 20 56 2 9 -15 10 -15 8 3 -3 14 5 24 22
31 37 17 57 13 55 -11z m44 -9 c-3 -3 -11 5 -18 17 -13 21 -12 21 5 5 10 -10
16 -20 13 -22z m59 -1 c-3 -3 -9 2 -12 12 -6 14 -5 15 5 6 7 -7 10 -15 7 -18z
m-4051 -11 c0 -21 -24 -17 -30 5 -3 14 0 17 13 14 9 -2 17 -11 17 -19z m617 6
c-13 -13 -27 -18 -37 -14 -24 9 -6 29 30 32 l28 2 -21 -20z m2502 8 c9 -7 28
-24 42 -38 15 -13 29 -24 32 -23 3 1 3 -4 1 -11 -2 -6 -4 -16 -4 -23 0 -7 -4
-10 -8 -7 -5 2 -5 12 -2 22 5 13 4 15 -8 6 -16 -12 -36 -12 -62 0 -11 5 -23 4
-30 -3 -16 -16 -32 -14 -17 4 6 8 8 20 4 26 -5 8 -2 10 8 6 9 -3 21 0 28 6 10
9 12 8 7 -5 -9 -27 27 -43 44 -20 11 14 11 15 0 5 -7 -6 -20 -9 -28 -6 -9 4
-11 8 -5 12 7 4 3 16 -10 31 -12 16 -18 19 -14 8 6 -19 -9 -34 -18 -19 -8 12
3 41 15 41 6 0 17 -6 25 -12z m108 4 c3 -5 -1 -9 -9 -9 -8 0 -12 4 -9 9 3 4 7
8 9 8 2 0 6 -4 9 -8z m706 -1 c0 -5 -8 -15 -17 -22 -16 -12 -17 -12 -6 2 7 9
10 19 6 22 -3 4 -1 7 5 7 7 0 12 -4 12 -9z m-3246 -17 c30 -29 19 -33 -14 -4
-13 11 -18 20 -12 20 6 0 18 -7 26 -16z m2147 2 c8 4 9 3 5 -4 -10 -17 -33
-15 -40 4 -5 14 -4 15 8 5 8 -7 21 -9 27 -5z m1154 -15 c-6 -5 -25 10 -25 20
0 5 6 4 14 -3 8 -7 12 -15 11 -17z m-3565 11 c0 -5 -7 -9 -15 -9 -8 0 -12 4
-9 9 3 4 9 8 15 8 5 0 9 -4 9 -8z m3666 -19 c-4 -24 -21 -27 -37 -6 -11 15
-11 16 1 6 20 -19 29 -16 25 7 -2 11 0 18 5 15 4 -3 7 -13 6 -22z m-4126 -18
c-7 -9 -8 -15 -2 -15 6 0 12 6 15 13 2 6 8 9 12 5 12 -11 -16 -40 -33 -33 -13
5 -13 3 -1 -11 8 -10 15 -12 17 -5 2 6 9 11 15 11 5 0 7 -3 4 -7 -4 -3 3 -18
15 -32 19 -21 19 -23 3 -10 -11 8 -32 21 -47 29 -19 9 -28 21 -28 37 0 13 5
23 10 23 6 0 10 8 10 17 0 13 3 14 12 5 8 -8 8 -15 -2 -27z m699 22 c8 -10 7
-14 -2 -14 -6 0 -19 -3 -27 -5 -8 -3 -12 -3 -7 -1 4 3 5 9 2 14 -4 5 2 6 11 2
12 -4 15 -3 10 5 -10 16 -1 15 13 -1z m2129 -12 c-3 -3 -9 2 -12 12 -6 14 -5
15 5 6 7 -7 10 -15 7 -18z m64 8 c-6 -2 -10 -9 -7 -13 3 -5 1 -11 -4 -14 -7
-5 -8 11 -2 32 1 1 7 2 14 1 9 0 9 -2 -1 -6z m-3247 -13 c-3 -5 -12 -10 -18
-10 -7 0 -6 4 3 10 19 12 23 12 15 0z m3979 2 c-6 -4 -10 -15 -8 -25 2 -15 0
-16 -12 -6 -11 9 -12 15 -3 25 6 8 17 14 23 14 8 0 8 -2 0 -8z m82 -19 c-10
-10 -19 5 -10 18 6 11 8 11 12 0 2 -7 1 -15 -2 -18z m361 12 c0 -8 -4 -12 -9
-9 -5 3 -6 10 -3 15 9 13 12 11 12 -6z m-1213 -10 c-4 -8 -8 -15 -10 -15 -2 0
-4 7 -4 15 0 8 4 15 10 15 5 0 7 -7 4 -15z m-3233 -9 c5 3 9 0 9 -6 0 -15 -23
-7 -26 8 -1 7 0 8 3 2 2 -5 9 -8 14 -4z m463 -35 c-3 -3 -9 1 -14 9 -5 8 -13
11 -17 6 -4 -4 1 -14 11 -22 11 -8 16 -14 10 -14 -16 1 -40 25 -38 40 2 29 4
30 29 8 14 -12 22 -24 19 -27z m3941 30 c-3 -6 -11 -11 -16 -11 -5 0 -4 6 3
14 14 16 24 13 13 -3z m-4310 -1 c3 -6 -1 -7 -9 -4 -18 7 -21 14 -7 14 6 0 13
-4 16 -10z m2401 -7 c-2 -2 -21 -6 -42 -9 -34 -3 -37 -2 -21 10 15 11 75 11
63 -1z m1617 -16 c-4 -19 -11 -27 -22 -25 -18 4 -22 43 -4 43 6 0 15 3 19 8
11 11 13 5 7 -26z m46 2 c-11 -7 -10 -9 4 -9 9 0 17 -5 17 -11 0 -5 -4 -7 -10
-4 -6 3 -7 -1 -4 -9 3 -9 1 -16 -5 -16 -6 0 -11 6 -11 13 0 9 -2 9 -9 -1 -6
-10 -10 -9 -14 7 -3 12 -1 21 4 21 5 0 9 6 9 14 0 17 23 27 29 13 2 -5 -3 -13
-10 -18z m362 14 c13 -16 12 -17 -3 -4 -17 13 -22 21 -14 21 2 0 10 -8 17 -17z
m-4485 -15 c4 -7 3 -8 -4 -4 -7 4 -12 2 -12 -5 0 -7 -3 -10 -6 -6 -6 5 3 27
11 27 2 0 7 -5 11 -12z m3194 2 c0 -5 -5 -10 -11 -10 -5 0 -7 5 -4 10 3 6 8
10 11 10 2 0 4 -4 4 -10z m309 1 c11 -7 9 -10 -8 -16 -12 -3 -19 -10 -16 -15
3 -5 1 -11 -4 -14 -5 -4 -12 -2 -16 4 -4 6 -10 8 -15 5 -17 -10 -20 14 -4 29
17 18 42 20 63 7z m895 1 c3 -5 -1 -9 -9 -9 -8 0 -15 4 -15 9 0 4 4 8 9 8 6 0
12 -4 15 -8z m-4039 -50 c-1 -2 -17 -5 -34 -7 -25 -3 -31 0 -31 14 0 28 9 31
40 13 16 -9 27 -18 25 -20z m2735 28 c0 -5 0 -13 -1 -16 0 -4 5 -11 13 -16 10
-8 9 -9 -4 -5 -26 9 -29 -4 -6 -24 11 -11 16 -19 10 -19 -6 0 -22 12 -36 27
-24 25 -24 28 -9 45 18 20 33 23 33 8z m1363 -4 c4 -10 1 -13 -9 -9 -15 6 -19
23 -5 23 5 0 11 -7 14 -14z m37 8 c0 -8 -19 -13 -24 -6 -3 5 1 9 9 9 8 0 15
-2 15 -3z m-1340 -25 c0 -5 -4 -7 -10 -4 -5 3 -10 1 -10 -6 0 -7 -3 -10 -6 -6
-8 7 4 27 17 27 5 0 9 -5 9 -11z m1233 -22 c-2 -4 -11 -3 -18 3 -7 6 -15 7
-17 2 -1 -5 -12 -6 -23 -1 -18 7 -18 8 5 9 14 2 28 2 33 1 4 0 7 5 7 12 0 8 3
7 9 -3 6 -8 7 -18 4 -23z m34 11 c-3 -8 -6 -5 -6 6 -1 11 2 17 5 13 3 -3 4
-12 1 -19z m78 12 c-3 -5 -12 -10 -18 -10 -7 0 -6 4 3 10 19 12 23 12 15 0z
m-4505 -16 c0 -8 -19 -13 -24 -6 -3 5 1 9 9 9 8 0 15 -2 15 -3z m3180 -4 c-8
-5 -19 -10 -25 -10 -5 0 -3 5 5 10 8 5 20 10 25 10 6 0 3 -5 -5 -10z m54 -12
c-3 -5 -10 -6 -15 -2 -14 8 -40 -16 -32 -30 3 -6 3 -8 -2 -4 -4 4 -13 0 -20
-9 -13 -17 -35 -10 -35 10 0 7 4 6 10 -3 9 -13 12 -13 20 2 18 30 40 47 59 45
11 -1 17 -5 15 -9z m229 2 c-27 -11 -28 -16 -7 -24 8 -3 13 -2 9 3 -3 5 3 8
12 6 10 -2 20 -4 23 -4 3 -1 11 -11 19 -23 13 -22 12 -22 -14 2 l-27 25 6 -25
c6 -19 5 -22 -3 -10 -10 13 -12 13 -22 0 -9 -13 -10 -12 -5 3 3 11 2 16 -4 12
-14 -9 -12 -35 3 -36 10 0 10 -2 0 -6 -7 -2 -13 -9 -13 -14 0 -6 5 -7 10 -4 6
3 10 2 10 -4 0 -5 -6 -12 -12 -14 -7 -3 -3 -6 10 -6 13 -1 21 3 18 7 -2 4 5 9
16 9 20 2 20 1 2 -13 -18 -15 -18 -15 -1 -10 11 3 16 2 12 -4 -3 -6 -1 -10 4
-10 10 0 15 14 12 33 0 4 4 7 9 7 6 0 10 -3 10 -7 -1 -11 -29 -59 -30 -50 0 4
-10 3 -21 -4 -15 -8 -19 -8 -15 0 4 6 2 11 -3 11 -6 0 -11 -4 -11 -10 0 -5 -7
-7 -16 -3 -13 5 -10 9 12 19 l29 13 -27 -5 c-27 -6 -28 -4 -25 27 2 19 0 46
-4 60 -9 33 6 59 34 58 l22 0 -22 -9z m-313 -10 c18 -12 2 -12 -25 0 -13 6
-15 9 -5 9 8 0 22 -4 30 -9z m400 5 c0 -2 -6 -8 -13 -14 -10 -8 -14 -7 -14 2
0 8 6 14 14 14 7 0 13 -1 13 -2z m-3164 -18 c17 -16 11 -33 -10 -31 -11 1 -21
3 -21 4 0 8 -36 6 -42 -2 -3 -6 -2 -8 3 -5 6 3 16 1 24 -5 12 -8 12 -9 -2 -4
-11 3 -18 0 -19 -7 0 -9 -2 -9 -6 1 -2 6 -9 10 -13 7 -5 -3 -12 0 -16 6 -4 7
-3 9 3 6 11 -7 28 22 18 31 -3 3 -5 0 -5 -6 0 -7 -4 -12 -10 -12 -5 0 -7 6 -4
14 5 14 86 17 100 3z m3923 -1 c11 -8 13 -8 8 1 -5 8 -1 11 14 8 12 -2 24 -7
27 -10 3 -2 12 1 21 7 12 10 12 8 -1 -8 -25 -29 -22 -37 7 -18 14 9 22 21 18
27 -3 6 -1 7 6 3 8 -6 9 -12 2 -20 -6 -7 -8 -16 -4 -20 4 -4 -1 -4 -11 0 -13
5 -17 4 -13 -3 9 -14 -22 -11 -31 3 -4 5 -23 11 -42 13 -19 1 -40 7 -46 12 -6
5 -14 6 -17 2 -4 -3 -7 -1 -7 5 0 14 49 12 69 -2z m-4293 -8 c3 -4 -1 -5 -10
-4 -8 1 -18 5 -22 8 -3 4 1 5 10 4 8 -1 18 -5 22 -8z m4480 -3 c8 10 14 14 14
8 0 -7 -5 -15 -11 -19 -8 -4 -7 -9 2 -15 8 -5 9 -9 3 -9 -6 0 -17 7 -24 15
-14 16 -55 21 -45 5 3 -5 1 -10 -4 -10 -20 0 -11 21 12 29 16 6 24 4 31 -7 8
-13 11 -13 22 3z m-4512 -10 c11 -8 16 -15 10 -15 -5 0 -18 7 -28 15 -11 8
-16 15 -10 15 5 0 18 -7 28 -15z m77 -2 c13 -17 13 -17 -6 -3 -11 8 -22 16
-24 17 -2 2 0 3 6 3 6 0 17 -8 24 -17z m3054 5 c5 4 4 0 -1 -8 -5 -8 -9 -27
-10 -43 -1 -22 1 -25 12 -16 11 9 15 8 20 -4 6 -16 31 -17 42 -1 4 5 16 16 27
24 14 10 13 6 -5 -14 l-25 -28 25 6 c17 5 20 4 10 -2 -22 -14 -70 -9 -80 8 -7
12 -11 9 -19 -10 -7 -18 -10 -20 -10 -7 -1 20 -11 22 -31 5 -8 -7 -11 -9 -7
-4 4 5 -3 20 -15 33 -14 15 -17 23 -8 23 9 0 7 5 -6 16 -10 8 -13 13 -6 9 6
-3 12 0 12 7 0 11 2 10 9 0 7 -11 9 -10 14 3 5 12 11 14 26 6 10 -6 22 -7 26
-3z m1165 -10 c31 -10 39 -17 34 -30 -5 -17 4 -23 34 -19 6 1 12 -3 12 -9 0
-5 8 -10 18 -11 14 0 14 -2 -3 -9 -29 -12 -38 -12 -32 3 3 7 -3 13 -12 14 -9
0 -27 3 -40 7 -13 3 -20 2 -17 -2 7 -7 11 -8 37 -11 5 0 8 -5 4 -10 -7 -12 32
-34 45 -26 5 3 11 1 15 -5 4 -6 10 -8 15 -5 5 3 11 1 14 -4 7 -11 -13 -9 -31
2 -8 5 -13 3 -13 -4 0 -10 -3 -10 -12 -1 -16 16 -31 16 -22 0 4 -7 -9 -2 -30
10 -20 12 -34 18 -31 12 8 -12 -35 -13 -54 -1 -11 7 -10 11 5 20 11 6 14 11 7
11 -17 0 -12 80 4 80 8 0 31 -6 53 -12z m-122 -34 c2 -28 2 -28 -13 -10 -8 11
-18 16 -22 12 -4 -4 -3 -10 3 -14 14 -9 26 -42 15 -42 -5 0 -16 11 -25 25 -15
23 -15 26 1 45 23 26 37 21 41 -16z m-4141 19 c-4 -3 -1 -13 6 -22 11 -14 10
-14 -5 -2 -16 12 -16 31 -1 31 4 0 3 -3 0 -7z m3133 -9 c0 -2 -7 -4 -15 -4 -8
0 -15 4 -15 10 0 5 7 7 15 4 8 -4 15 -8 15 -10z m24 4 c-5 -8 -1 -9 12 -4 14
5 16 4 7 -5 -13 -13 -37 -3 -28 12 4 5 8 9 11 9 3 0 2 -5 -2 -12z m1300 4 c2
-4 -4 -8 -14 -8 -10 0 -16 4 -14 8 3 4 9 8 14 8 5 0 11 -4 14 -8z m-130 -23
c-3 -5 -10 -7 -15 -3 -5 3 -7 10 -3 15 3 5 10 7 15 3 5 -3 7 -10 3 -15z
m-4367 -12 c0 -8 -6 -14 -14 -14 -9 0 -10 4 -2 14 6 7 12 13 14 13 1 0 2 -6 2
-13z m418 4 c16 -2 -11 -22 -34 -24 -25 -2 -25 -1 -4 -18 14 -12 16 -12 8 0
-6 10 -4 12 4 7 7 -5 22 0 34 11 14 11 17 12 10 2 -10 -12 -10 -18 0 -29 9
-11 7 -10 -7 0 -18 14 -19 13 -12 -5 5 -15 4 -17 -4 -9 -7 7 -24 9 -45 4 -18
-4 -39 -3 -46 2 -11 8 -11 9 2 5 9 -3 22 -1 29 3 11 7 11 11 1 24 -8 9 -19 16
-25 16 -6 0 -5 -4 3 -9 8 -5 9 -11 3 -15 -5 -3 -15 1 -22 9 -10 12 -9 16 1 19
33 11 60 13 104 7z m2770 -9 c-3 -3 -11 0 -18 7 -9 10 -8 11 6 5 10 -3 15 -9
12 -12z m-3269 -7 c-2 -14 -16 -22 -16 -10 0 3 0 10 0 15 0 6 4 10 9 10 5 0 8
-7 7 -15z m1681 -2 c0 -9 -4 -10 -14 -2 -7 6 -13 12 -13 14 0 1 6 2 13 2 8 0
14 -6 14 -14z m2883 4 c0 -5 -7 -6 -16 -3 -13 5 -15 2 -11 -14 4 -17 2 -18
-14 -9 -10 5 -19 12 -19 15 0 3 4 3 9 0 5 -3 11 0 14 7 6 15 37 19 37 4z
m-355 -6 c3 -5 1 -12 -5 -16 -5 -3 -10 1 -10 9 0 18 6 21 15 7z m385 -16 c14
-19 14 -19 -2 -6 -10 7 -18 18 -18 24 0 6 1 8 3 6 1 -2 9 -13 17 -24z m-1404
-14 c-4 -5 0 -11 6 -14 7 -2 9 -8 5 -13 -9 -10 -28 16 -21 28 3 4 7 8 10 8 3
0 3 -4 0 -9z m124 -11 c-6 -11 -13 -20 -16 -20 -2 0 0 9 6 20 6 11 13 20 16
20 2 0 0 -9 -6 -20z m370 10 c0 -5 -2 -10 -4 -10 -3 0 -8 5 -11 10 -3 6 -1 10
4 10 6 0 11 -4 11 -10z m-430 -20 c18 -12 2 -12 -25 0 -13 6 -15 9 -5 9 8 0
22 -4 30 -9z m1305 -8 c-3 -3 -11 0 -18 7 -9 10 -8 11 6 5 10 -3 15 -9 12 -12z
m-881 -14 c10 17 23 15 30 -4 4 -9 0 -25 -9 -34 -8 -9 -14 -28 -13 -41 2 -17
-1 -23 -12 -21 -8 2 -12 0 -8 -3 4 -4 -3 -16 -15 -26 -12 -10 -17 -18 -12 -19
6 0 23 11 38 25 25 24 32 24 28 2 -1 -5 3 -6 8 -3 5 3 8 14 7 23 -2 9 9 27 23
38 30 25 81 41 81 25 0 -5 0 -12 0 -15 0 -3 -3 -5 -6 -4 -3 0 -12 -8 -20 -18
-11 -13 -14 -14 -12 -3 2 8 10 21 18 28 13 11 12 12 -6 3 -12 -6 -24 -8 -27
-5 -3 3 -12 -7 -21 -23 -13 -26 -13 -30 0 -30 8 0 14 5 13 11 -3 23 1 37 10
32 19 -12 4 -50 -43 -106 -28 -33 -53 -60 -58 -60 -16 0 -48 41 -48 62 0 12
-3 18 -7 15 -9 -9 -45 52 -38 64 4 5 0 16 -9 24 -8 8 -13 24 -11 35 2 11 -1
20 -7 20 -15 0 -1 13 17 16 8 1 15 -2 15 -8 0 -7 4 -7 13 -1 6 6 22 9 35 8 12
-1 22 3 23 9 0 6 4 2 8 -8 5 -14 10 -16 15 -8z m632 7 c9 -8 11 -15 5 -15 -20
0 -11 -16 9 -17 30 -3 48 -25 39 -48 -12 -31 -10 -42 4 -18 9 16 16 20 26 13
13 -7 13 -11 0 -26 -13 -15 -12 -16 10 -9 16 5 21 4 17 -4 -4 -6 -15 -11 -24
-11 -15 0 -15 -2 -2 -10 13 -8 12 -10 -3 -10 -11 0 -17 6 -15 17 2 10 -3 18
-10 18 -13 0 -32 23 -32 38 0 5 4 6 9 3 5 -4 8 2 7 11 -2 9 -8 18 -15 19 -6 1
-7 0 -1 -3 5 -2 7 -9 4 -15 -4 -5 -16 0 -30 13 -18 17 -21 25 -13 36 9 10 8
13 -5 13 -10 0 -14 5 -11 10 8 14 14 13 31 -5z m45 -5 c6 0 7 6 3 13 -5 9 -4
9 6 0 7 -6 19 -9 26 -6 8 3 14 0 14 -7 0 -6 -5 -8 -12 -4 -7 4 -8 3 -4 -5 6
-9 11 -9 24 1 10 8 13 9 9 1 -4 -6 -3 -14 3 -18 5 -3 10 2 10 12 0 13 5 9 15
-11 9 -16 13 -31 10 -34 -2 -3 -7 3 -11 12 -5 12 -10 14 -19 6 -9 -8 -15 -8
-20 0 -3 5 -15 10 -26 10 -11 0 -17 5 -14 10 3 6 -3 10 -14 10 -14 0 -21 6
-20 18 0 10 3 12 6 5 2 -7 9 -13 14 -13z m-4215 -2 c5 -7 3 -8 -6 -3 -10 6
-12 4 -6 -11 5 -14 4 -16 -5 -7 -6 6 -8 16 -5 22 9 14 13 14 22 -1z m307 -3
c4 -8 2 -17 -3 -20 -6 -4 -10 -1 -10 4 0 6 -5 11 -11 11 -8 0 -9 -4 0 -13 6
-8 7 -18 3 -23 -4 -4 0 -4 8 2 18 13 29 12 55 -3 17 -11 15 -12 -18 -9 -25 3
-37 0 -34 -8 2 -6 21 -10 41 -10 20 1 34 -1 31 -4 -2 -3 0 -11 7 -19 6 -8 7
-13 2 -12 -23 4 -44 -2 -42 -13 5 -23 -27 -18 -39 7 -7 17 -8 25 -1 25 6 0 3
9 -6 19 -10 11 -15 25 -11 30 3 6 1 11 -4 11 -15 0 -14 27 2 33 20 9 25 8 30
-8z m94 1 c4 -3 1 -6 -6 -6 -7 0 -9 -5 -5 -12 4 -6 3 -8 -4 -4 -6 3 -14 2 -17
-4 -5 -8 -11 -8 -20 0 -8 7 -19 9 -25 5 -12 -8 -9 17 3 26 11 8 65 4 74 -5z
m2680 -3 c-1 -10 -7 -24 -11 -32 -7 -11 -5 -13 6 -9 8 4 21 2 29 -4 12 -8 12
-9 -1 -5 -17 4 -39 -20 -39 -43 0 -12 2 -11 10 2 8 14 14 15 34 6 14 -6 23
-13 21 -15 -2 -3 -14 0 -25 7 -25 13 -28 2 -3 -16 22 -17 56 -18 46 -1 -4 6
-3 8 1 4 5 -4 10 -14 11 -21 1 -11 -5 -12 -27 -6 -22 7 -29 5 -29 -5 0 -7 -5
-15 -10 -17 -6 -2 -1 -9 11 -16 19 -12 20 -12 14 10 -5 20 -4 21 5 5 6 -9 17
-15 23 -11 7 3 5 -1 -4 -8 -13 -11 -14 -16 -4 -25 7 -7 15 -10 18 -7 3 3 8 0
12 -6 3 -6 3 -10 -2 -9 -19 3 -27 -2 -14 -10 7 -5 10 -14 6 -20 -5 -9 -10 -9
-20 -1 -10 8 -14 7 -18 -2 -2 -7 -8 -9 -13 -5 -5 4 -2 12 6 17 8 5 15 15 16
22 0 18 -17 39 -27 32 -5 -3 -12 2 -15 10 -3 9 -11 13 -18 10 -6 -4 -3 1 6 11
16 18 15 20 -18 57 -28 31 -33 42 -24 53 7 8 8 20 4 26 -4 7 1 18 11 26 25 18
35 16 32 -4z m514 -6 c-10 -9 -11 -8 -5 6 3 10 9 15 12 12 3 -3 0 -11 -7 -18z
m429 19 c0 -2 -8 -10 -17 -17 -16 -13 -17 -12 -4 4 13 16 21 21 21 13z m-916
-21 c3 -8 1 -15 -4 -15 -6 0 -10 7 -10 15 0 8 2 15 4 15 2 0 6 -7 10 -15z m64
-20 c4 4 -2 13 -12 21 -21 15 -10 19 13 5 8 -5 11 -16 8 -25 -5 -13 -11 -15
-26 -6 -18 9 -20 7 -16 -20 2 -16 0 -30 -4 -30 -4 0 -7 20 -7 43 -1 43 -1 44
18 25 11 -11 23 -17 26 -13z m468 23 c4 -6 3 -8 -3 -5 -6 4 -16 0 -23 -8 -7
-8 -17 -15 -22 -15 -6 0 0 9 13 20 29 23 26 23 35 8z m169 2 c-3 -5 -12 -10
-18 -10 -7 0 -6 4 3 10 19 12 23 12 15 0z m102 -20 c-13 -35 -22 -38 -24 -10
-1 11 2 18 8 15 5 -4 9 1 9 9 0 9 4 16 9 16 5 0 4 -13 -2 -30z m433 9 c0 -5
-4 -9 -8 -9 -5 0 -9 7 -9 15 0 8 4 12 9 9 4 -3 8 -9 8 -15z m-4383 -4 c0 -8
-4 -12 -9 -9 -5 3 -6 10 -3 15 9 13 12 11 12 -6z m3251 -10 c-3 -3 -9 2 -12
12 -6 14 -5 15 5 6 7 -7 10 -15 7 -18z m766 -7 c-4 -6 -10 -5 -15 3 -14 22
-10 33 6 19 8 -7 12 -17 9 -22z m96 12 c0 -11 -7 -20 -15 -20 -13 0 -14 4 -5
20 6 11 13 20 15 20 3 0 5 -9 5 -20z m62 -23 c-9 -11 -8 -14 3 -14 8 0 12 4 9
9 -3 4 -3 8 -1 8 3 0 14 -15 25 -32 19 -29 19 -34 6 -49 -13 -14 -13 -20 1
-45 8 -16 15 -25 15 -21 0 5 5 5 10 2 8 -5 7 -12 -2 -22 -11 -14 -10 -15 12
-8 14 4 22 4 18 0 -4 -4 -22 -9 -40 -11 -30 -4 -31 -3 -12 12 13 11 14 14 3
11 -20 -6 -64 27 -55 42 4 6 12 9 17 5 5 -3 7 -9 4 -14 -3 -4 2 -11 11 -14 13
-5 12 -1 -3 24 -14 24 -19 27 -26 15 -9 -17 -27 -20 -27 -4 0 18 -44 49 -52
37 -3 -6 -5 1 -5 15 1 15 5 28 10 28 4 1 12 3 17 4 6 1 14 3 19 4 5 0 12 15
16 32 6 28 9 30 23 16 12 -12 13 -19 4 -30z m288 29 c0 -2 -6 -9 -14 -15 -11
-9 -16 -9 -22 0 -4 7 -3 9 4 5 6 -3 13 -2 17 4 6 10 15 14 15 6z m-690 -56
c-11 -27 -14 -29 -25 -13 -14 18 -9 43 7 43 6 0 6 -6 -1 -14 -8 -9 -9 -16 -2
-21 6 -3 13 6 17 20 3 14 9 24 12 21 2 -3 -1 -19 -8 -36z m217 27 c-2 -6 -10
-11 -19 -13 -10 -1 -15 3 -12 10 6 15 36 17 31 3z m394 -10 c-10 -9 -11 -8 -5
6 3 10 9 15 12 12 3 -3 0 -11 -7 -18z m-4480 4 c7 11 9 10 9 -4 0 -15 3 -16
21 -7 24 14 65 22 55 12 -4 -4 -11 -7 -14 -7 -24 -2 -51 -18 -46 -27 4 -7 2
-8 -4 -4 -7 4 -12 1 -12 -6 -1 -7 -7 -2 -15 12 -8 14 -14 30 -14 35 0 6 3 4 6
-4 5 -11 7 -11 14 0z m599 -34 c0 -5 -4 -6 -9 -2 -5 3 -12 -4 -16 -15 -7 -22
-20 -26 -31 -8 -4 7 -3 8 4 4 8 -5 10 -2 6 9 -8 21 -14 14 -19 -21 -2 -16 -2
-23 1 -16 3 6 10 9 16 6 5 -3 2 -14 -8 -25 -9 -10 -20 -16 -24 -14 -5 3 -7 -2
-6 -10 4 -26 12 -26 26 0 8 14 20 23 27 21 7 -3 15 0 19 6 5 7 2 8 -5 3 -10
-6 -11 -3 -2 13 14 26 28 35 41 27 11 -7 2 -35 -12 -35 -6 0 -5 6 2 15 8 9 9
15 2 15 -35 0 -20 -45 15 -46 17 0 20 3 12 12 -7 8 -7 14 1 19 6 3 7 11 4 17
-4 7 -2 8 5 4 8 -5 9 -12 2 -19 -13 -17 12 -40 28 -24 6 6 11 7 11 2 -1 -13
-30 -52 -30 -40 0 5 -19 -13 -43 -39 -46 -49 -62 -52 -88 -14 -7 11 -24 31
-37 44 -13 13 -19 24 -15 24 4 0 1 5 -7 10 -12 8 -11 12 8 30 12 12 26 18 31
15 5 -3 13 5 17 17 9 30 25 40 43 25 12 -10 13 -8 6 13 -7 24 -7 24 9 5 8 -11
16 -24 16 -28z m15 25 c-3 -3 -11 0 -18 7 -9 10 -8 11 6 5 10 -3 15 -9 12 -12z
m3095 3 c-7 -9 -15 -13 -19 -10 -3 3 1 10 9 15 21 14 24 12 10 -5z m290 11 c0
-2 -8 -10 -17 -17 -16 -13 -17 -12 -4 4 13 16 21 21 21 13z m530 -6 c8 -5 11
-10 5 -10 -5 0 -17 5 -25 10 -8 5 -10 10 -5 10 6 0 17 -5 25 -10z m-3887 -25
c-3 -9 -8 -14 -10 -11 -3 3 -2 9 2 15 9 16 15 13 8 -4z m2691 -8 c4 4 4 -1 0
-12 -5 -11 -9 -14 -12 -7 -2 7 -8 10 -12 7 -5 -3 -12 0 -16 6 -5 8 -3 9 6 4
10 -6 12 -3 7 11 -7 18 -6 18 6 2 8 -10 17 -15 21 -11z m562 4 c-10 -11 -13
-22 -8 -25 6 -3 12 1 16 9 3 8 11 15 18 15 9 0 8 -3 -2 -10 -8 -5 -12 -10 -8
-10 11 0 -24 -40 -35 -40 -5 0 -6 10 -2 23 5 19 5 20 -5 4 -9 -13 -9 -22 0
-32 9 -10 7 -15 -9 -20 -12 -3 -21 -11 -21 -16 0 -6 -20 -30 -45 -55 -25 -24
-40 -44 -33 -44 13 0 138 130 138 144 0 4 7 6 15 2 8 -3 14 -2 14 2 -1 4 -1
14 0 22 1 13 3 13 10 1 12 -18 -13 -102 -34 -118 -9 -6 -16 -14 -15 -18 1 -4
-11 -22 -26 -40 -34 -38 -38 -52 -18 -52 8 0 12 2 9 5 -6 7 56 92 68 92 5 0 7
-7 3 -15 -3 -8 0 -15 5 -15 7 0 9 11 7 25 -3 14 -1 25 4 25 5 0 7 4 4 8 -8 13
24 53 36 46 7 -5 8 -2 4 5 -5 7 -14 10 -20 8 -7 -3 -13 1 -13 8 0 7 8 10 19 7
10 -2 18 1 18 7 0 7 -6 11 -13 9 -7 -2 -14 2 -15 7 -1 6 1 10 6 10 4 0 12 3
17 7 13 8 14 -3 14 -152 1 -133 -9 -156 -60 -138 -18 6 -26 14 -22 21 4 7 -1
6 -10 -2 -13 -10 -20 -11 -30 -2 -8 6 -16 9 -19 6 -3 -3 -11 1 -18 10 -7 8
-20 15 -29 15 -20 1 -51 24 -51 39 0 6 -4 12 -10 12 -5 1 -15 2 -21 3 -7 0
-21 13 -32 28 l-20 26 42 42 c22 23 41 44 41 47 0 3 13 18 29 34 16 15 26 31
23 36 -4 4 5 -2 19 -15 l25 -22 22 25 c12 14 25 25 28 25 4 0 -1 -9 -10 -19z
m554 9 c18 -12 2 -12 -25 0 -13 6 -15 9 -5 9 8 0 22 -4 30 -9z m-4370 -4 c0
-3 -4 -8 -10 -11 -5 -3 -10 -1 -10 4 0 6 5 11 10 11 6 0 10 -2 10 -4z m4088
-13 c-1 -10 1 -24 6 -31 4 -7 5 -16 1 -20 -4 -4 -10 -1 -12 6 -6 14 -23 16
-23 2 0 -5 9 -19 20 -30 15 -15 20 -33 20 -70 0 -47 -6 -56 -33 -51 -5 1 -6
-3 -2 -8 3 -6 11 -8 18 -5 7 2 13 -4 14 -16 2 -18 0 -18 -21 -5 -20 13 -22 13
-23 -8 -2 -16 0 -18 7 -8 7 12 11 12 24 -2 19 -19 21 -34 3 -18 -8 6 -22 9
-33 7 -17 -4 -19 1 -16 30 3 21 0 34 -7 34 -6 0 -11 -13 -11 -30 0 -16 -5 -30
-11 -30 -5 0 -7 5 -3 12 4 7 3 8 -4 4 -13 -8 -5 -36 11 -36 6 0 2 -6 -8 -14
-21 -15 -45 -11 -41 7 1 7 1 9 -1 4 -3 -4 -9 -4 -15 -1 -6 4 -6 -1 1 -14 9
-17 8 -20 -7 -17 -9 1 -15 9 -14 16 2 8 6 72 8 143 3 72 7 132 10 135 3 3 9
-1 14 -9 9 -13 10 -13 10 0 0 13 2 13 9 1 5 -8 18 -12 30 -8 20 5 21 2 17 -74
-2 -43 0 -79 5 -79 5 0 9 15 9 34 0 19 5 38 10 41 6 4 7 11 4 17 -13 21 -14
69 -2 62 8 -5 9 -2 5 9 -4 10 0 20 11 26 23 14 24 14 20 -6z m-2928 3 c0 -2
-7 -7 -16 -10 -8 -3 -12 -2 -9 4 6 10 25 14 25 6z m40 -17 c0 -5 -4 -9 -8 -9
-5 0 -9 7 -9 15 0 8 4 12 9 9 4 -3 8 -9 8 -15z m28 -4 c-3 -3 -9 2 -12 12 -6
14 -5 15 5 6 7 -7 10 -15 7 -18z m-113 -13 c-3 -3 -11 0 -18 7 -9 10 -8 11 6
5 10 -3 15 -9 12 -12z m2165 -17 c0 -5 -5 -3 -10 5 -5 8 -10 20 -10 25 0 6 5
3 10 -5 5 -8 10 -19 10 -25z m-3229 -8 c-10 -9 -11 -8 -5 6 3 10 9 15 12 12 3
-3 0 -11 -7 -18z m956 -12 c1 -40 -4 -44 -17 -12 -7 17 -9 18 -9 5 -1 -10 -6
-18 -12 -18 -5 0 -7 5 -3 12 4 7 3 8 -4 4 -9 -5 -7 -14 5 -31 10 -12 22 -20
28 -17 5 3 4 7 -3 10 -7 2 -12 9 -12 15 1 7 10 1 20 -12 11 -13 20 -18 20 -12
0 7 5 9 10 6 6 -3 10 -1 10 5 0 7 -7 9 -17 5 -14 -5 -15 -3 -6 6 11 11 33 5
33 -10 0 -4 -15 -18 -32 -31 -19 -14 -27 -16 -19 -7 8 10 9 17 3 17 -6 0 -14
-5 -17 -10 -4 -6 -12 -7 -18 -3 -18 11 -37 12 -37 2 0 -5 6 -9 14 -9 23 0 41
-29 27 -43 -10 -9 -11 -8 -5 8 7 18 6 19 -10 6 -15 -13 -19 -13 -27 0 -9 15
-12 26 -10 49 0 9 -2 10 -5 3 -3 -6 -17 -9 -32 -7 -15 3 -23 2 -19 -2 4 -4 1
-14 -6 -22 -9 -13 -9 -14 1 -8 7 4 12 2 13 -6 0 -7 2 -23 3 -35 1 -12 -1 -28
-6 -35 -6 -11 -8 -10 -8 0 0 7 -5 10 -10 7 -8 -5 -7 -12 2 -23 7 -10 8 -14 3
-9 -4 4 -16 0 -26 -9 -14 -12 -18 -13 -25 -2 -4 7 -4 10 0 6 13 -11 35 15 25
28 -6 7 -3 16 8 25 14 12 16 12 8 0 -5 -10 -4 -12 4 -7 6 4 9 11 6 16 -3 4 1
11 7 13 9 4 10 6 1 6 -6 1 -15 -3 -18 -9 -3 -5 -11 -10 -17 -10 -7 0 -7 4 1
13 6 8 9 23 6 35 -2 12 0 24 5 27 4 3 7 16 5 30 -1 14 2 28 6 31 8 5 13 -11 7
-19 -2 -2 3 -12 11 -21 10 -12 17 -14 25 -6 8 8 6 14 -6 21 -10 5 -15 16 -11
25 4 12 11 8 32 -17 15 -18 36 -34 47 -35 15 -2 13 2 -9 18 -15 11 -24 24 -21
29 3 5 0 8 -7 7 -6 -2 -13 2 -16 8 -2 6 11 11 32 12 30 1 42 5 71 22 0 0 0
-16 1 -35z m33 25 c0 -5 -4 -10 -10 -10 -5 0 -10 -5 -10 -10 0 -6 7 -10 16 -8
10 2 18 -3 20 -10 1 -7 0 -8 -2 -3 -3 6 -11 8 -19 5 -17 -7 -27 9 -19 30 7 18
24 22 24 6z m3091 -2 c1 -7 1 -17 0 -21 -1 -5 2 -6 7 -3 5 3 23 -15 41 -39 17
-24 38 -51 46 -59 12 -12 12 -15 1 -19 -8 -3 -22 3 -31 13 -11 12 -12 19 -5
22 7 2 2 12 -12 23 -13 11 -17 13 -10 5 18 -21 15 -34 -5 -19 -17 13 -17 12
-3 -6 8 -11 23 -31 35 -44 11 -14 13 -20 5 -15 -8 5 -19 9 -25 9 -5 1 -9 6 -7
13 1 7 -2 12 -6 12 -12 0 -33 49 -27 61 3 5 0 6 -8 3 -15 -6 -26 26 -19 59 4
20 21 23 23 5z m140 5 c1 -14 7 -37 14 -58 5 -16 4 -15 -7 3 -8 12 -17 20 -20
17 -8 -9 -30 23 -23 35 7 12 35 14 36 3z m84 -2 c3 -6 -5 -15 -17 -21 -21 -10
-21 -10 -6 3 10 8 15 17 11 20 -3 4 -4 7 0 7 3 0 8 -4 12 -9z m76 -8 c12 -16
12 -17 -2 -6 -9 7 -20 9 -24 5 -5 -4 -5 -1 -1 6 9 16 11 15 27 -5z m-3777 -50
c-7 -7 -19 -13 -26 -13 -10 0 -9 -3 2 -10 8 -5 11 -10 7 -10 -5 0 -5 -6 0 -12
9 -15 5 -59 -7 -72 -10 -10 -2 -36 12 -36 6 0 8 9 5 20 -5 21 15 44 28 32 5
-4 5 -1 1 6 -4 7 -11 10 -16 7 -14 -8 1 67 19 98 14 25 20 28 51 23 19 -3 52
-6 72 -6 33 0 36 -2 31 -22 -3 -13 -6 -33 -7 -45 0 -13 -5 -23 -11 -23 -5 0
-3 -5 5 -10 11 -7 11 -10 2 -10 -7 0 -10 -4 -7 -10 3 -5 0 -10 -7 -10 -9 0 -9
-3 2 -10 14 -9 13 -11 -9 -14 -17 -2 -22 -14 -10 -22 8 -5 10 -3 4 7 -6 11 -5
12 5 2 11 -10 9 -16 -10 -33 -13 -11 -26 -18 -28 -15 -3 3 3 12 14 20 10 8 15
15 10 15 -6 0 -21 -10 -34 -22 -14 -13 -22 -17 -18 -10 5 7 1 12 -10 12 -13 0
-14 3 -4 15 10 12 10 15 -4 15 -19 0 -22 -36 -3 -44 6 -3 0 -3 -14 -1 -15 2
-35 8 -45 13 -11 6 -31 13 -46 17 -35 7 -35 27 -2 70 24 31 26 63 3 49 -5 -3
-7 -10 -3 -15 3 -6 -3 -18 -15 -28 -11 -10 -18 -21 -15 -24 3 -3 -3 -10 -13
-15 -14 -8 -25 -6 -42 7 l-23 18 34 34 c59 58 103 94 111 91 4 -1 7 4 8 11 0
6 4 3 8 -8 5 -12 3 -24 -5 -32z m433 41 c-3 -3 -12 -4 -19 -1 -8 3 -5 6 6 6
11 1 17 -2 13 -5z m18 -23 c-8 -14 -25 -14 -25 0 0 5 5 7 10 4 6 -3 10 -1 10
6 0 7 3 10 6 6 3 -3 3 -10 -1 -16z m-1128 -16 c-1 -13 -6 -27 -10 -30 -4 -3
-5 -2 -2 1 2 4 0 14 -5 24 -9 17 -4 30 12 30 5 0 7 -11 5 -25z m133 -1 c0 -8
-19 -13 -24 -6 -3 5 1 9 9 9 8 0 15 -2 15 -3z m3127 0 c-3 -3 -12 -4 -19 -1
-8 3 -5 6 6 6 11 1 17 -2 13 -5z m50 -9 c5 -4 2 -5 -6 0 -11 6 -13 4 -8 -8 4
-10 2 -16 -6 -14 -7 1 -10 -5 -9 -13 2 -8 0 -11 -4 -7 -12 12 -14 38 -1 30 6
-4 8 0 4 9 -6 17 16 19 30 3z m-2234 -45 c-3 -12 -8 -19 -11 -16 -5 6 5 36 12
36 2 0 2 -9 -1 -20z m3088 -54 c-2 -13 1 -16 11 -10 7 4 10 4 6 -1 -4 -4 -2
-15 5 -24 7 -9 2 -7 -14 4 -15 12 -24 26 -21 34 3 8 1 12 -4 9 -5 -4 -10 10
-10 30 l-2 36 16 -30 c9 -16 15 -37 13 -48z m-3233 28 c7 -14 8 -23 2 -19 -5
3 -10 2 -10 -4 0 -5 6 -11 13 -14 6 -2 8 -8 4 -13 -11 -12 -28 18 -21 39 3 9
1 17 -5 17 -6 0 -11 5 -11 10 0 19 17 10 28 -16z m2328 -1 c-15 -8 -24 -18
-21 -23 4 -6 2 -10 -4 -10 -22 0 -20 21 3 31 14 7 23 16 20 20 -3 5 3 6 12 2
14 -5 12 -8 -10 -20z m41 -9 c-3 -3 -12 -4 -19 -1 -8 3 -5 6 6 6 11 1 17 -2
13 -5z m39 -18 c0 -14 -3 -23 -7 -20 -6 3 -6 22 0 42 3 10 7 -2 7 -22z m-76 3
c0 -5 4 -7 10 -4 6 4 7 -1 4 -12 -5 -16 -4 -16 10 1 9 11 16 15 16 9 0 -17
-27 -36 -35 -23 -3 6 -10 8 -15 5 -5 -3 -8 4 -7 15 1 20 17 29 17 9z m-3109
-52 c-10 -9 -11 -8 -5 6 3 10 9 15 12 12 3 -3 0 -11 -7 -18z m3169 19 c0 -2
-7 -7 -16 -10 -8 -3 -12 -2 -9 4 6 10 25 14 25 6z m-3174 -36 c8 0 14 -4 14
-9 0 -4 -9 -8 -20 -7 -11 0 -20 4 -20 9 0 28 2 32 7 20 2 -7 11 -13 19 -13z
m3264 -6 c0 -8 -19 -13 -24 -6 -3 5 1 9 9 9 8 0 15 -2 15 -3z m660 -4 c0 -5
-2 -10 -4 -10 -3 0 -8 5 -11 10 -3 6 -1 10 4 10 6 0 11 -4 11 -10z m-673 -27
c-4 -3 1 -12 11 -20 15 -13 15 -13 -5 -4 -26 13 -36 14 -29 3 3 -5 -2 -9 -11
-9 -12 0 -11 5 7 19 21 17 41 26 27 11z m-3137 -27 c0 -2 -9 -6 -20 -9 -11 -3
-18 -1 -14 4 5 9 34 13 34 5z m-86 -14 c3 -5 -1 -9 -9 -9 -8 0 -12 4 -9 9 3 4
7 8 9 8 2 0 6 -4 9 -8z m141 -43 c-6 -32 -12 -34 -12 -4 0 14 3 25 8 25 4 0 6
-10 4 -21z m36 -22 c-10 -9 -11 -8 -5 6 3 10 9 15 12 12 3 -3 0 -11 -7 -18z
m3199 8 c11 -13 10 -14 -4 -9 -9 3 -16 10 -16 15 0 13 6 11 20 -6z m-3216 -21
c3 -8 2 -12 -4 -9 -6 3 -10 1 -10 -6 0 -7 -2 -10 -5 -7 -5 5 4 38 10 38 2 0 6
-7 9 -16z m3186 5 c0 -5 5 -7 12 -3 7 4 8 3 4 -5 -6 -9 -11 -9 -22 0 -11 9
-14 9 -14 0 0 -7 -5 -9 -11 -5 -8 4 -7 9 2 15 19 12 29 11 29 -2z m48 -34 c-3
-3 -9 2 -12 12 -6 14 -5 15 5 6 7 -7 10 -15 7 -18z m-3153 3 c5 4 6 2 2 -3 -3
-6 -2 -17 4 -25 5 -9 9 -10 9 -3 0 6 9 11 19 10 11 0 17 -7 14 -14 -3 -7 -15
-11 -26 -9 -12 3 -25 5 -29 5 -5 1 -7 5 -5 10 1 5 -7 17 -18 26 -20 16 -20 16
1 6 12 -6 25 -7 29 -3z"/>
<path d="M2974 3398 c12 -20 12 -28 3 -31 -6 -3 -2 -4 11 -4 31 2 49 32 25 42
-10 3 -19 1 -21 -5 -3 -7 -10 -4 -19 7 -12 14 -12 13 1 -9z m33 -13 c0 -8 -4
-12 -9 -9 -5 3 -6 10 -3 15 9 13 12 11 12 -6z"/>
<path d="M1076 2927 c3 -10 9 -15 12 -12 3 3 0 11 -7 18 -10 9 -11 8 -5 -6z"/>
<path d="M3446 2727 c3 -10 9 -15 12 -12 3 3 0 11 -7 18 -10 9 -11 8 -5 -6z"/>
<path d="M2693 2655 c0 -8 4 -12 9 -9 5 3 6 10 3 15 -9 13 -12 11 -12 -6z"/>
<path d="M2615 2640 c-3 -5 -1 -10 4 -10 6 0 11 5 11 10 0 6 -2 10 -4 10 -3 0
-8 -4 -11 -10z"/>
<path d="M3446 2211 c-10 -10 -13 -21 -9 -24 14 -9 30 6 30 26 0 21 0 21 -21
-2z"/>
<path d="M3418 2143 l-26 -28 24 -18 c13 -10 24 -15 24 -11 0 4 -8 13 -17 20
-17 12 -16 14 6 38 14 14 22 26 20 26 -3 0 -17 -12 -31 -27z"/>
<path d="M3390 2045 c-7 -8 -17 -12 -24 -8 -6 3 -8 3 -4 -2 4 -4 0 -14 -10
-22 -16 -13 -15 -13 3 -4 20 9 63 51 53 51 -3 0 -11 -7 -18 -15z"/>
<path d="M3366 1975 c2 -14 0 -25 -6 -25 -5 0 -10 -4 -10 -8 0 -5 7 -9 15 -9
8 0 12 4 9 8 -2 4 2 10 8 13 11 5 11 7 0 12 -6 3 -10 10 -7 14 3 5 1 11 -4 15
-6 3 -8 -5 -5 -20z"/>
<path d="M1850 2246 c0 -31 6 -34 13 -6 3 11 1 23 -4 26 -5 3 -9 -6 -9 -20z"/>
<path d="M1822 2197 c-8 -10 -6 -13 7 -13 11 0 17 6 14 13 -3 7 -6 13 -8 13
-1 0 -7 -6 -13 -13z"/>
<path d="M4379 2218 c-6 -20 -6 -39 0 -42 4 -3 7 6 7 20 0 20 -4 32 -7 22z"/>
<path d="M872 2170 c2 -19 6 -38 10 -41 5 -3 9 -17 10 -32 1 -15 6 -27 11 -27
4 0 5 15 2 33 -3 17 -8 43 -10 56 -2 13 -8 28 -15 35 -8 8 -10 1 -8 -24z"/>
<path d="M4471 2166 c-8 -10 -9 -16 -1 -21 5 -3 10 -5 11 -3 4 18 7 38 4 38
-1 0 -8 -6 -14 -14z"/>
<path d="M1219 2083 c-13 -16 -12 -17 4 -4 16 13 21 21 13 21 -2 0 -10 -8 -17
-17z"/>
<path d="M726 2001 c-4 -5 -2 -12 3 -15 5 -4 12 -2 15 3 4 5 2 12 -3 15 -5 4
-12 2 -15 -3z"/>
<path d="M4509 1943 c-13 -16 -12 -17 4 -4 9 7 17 15 17 17 0 8 -8 3 -21 -13z"/>
<path d="M1246 2008 c3 -5 10 -6 15 -3 13 9 11 12 -6 12 -8 0 -12 -4 -9 -9z"/>
<path d="M3788 1987 c7 -8 8 -18 4 -22 -4 -5 -1 -5 6 -1 17 10 15 23 -4 30
-13 5 -14 4 -6 -7z"/>
<path d="M3717 1900 c-6 -8 -7 -12 -3 -8 5 4 16 2 24 -5 11 -8 14 -9 9 0 -4 7
0 16 10 22 16 9 15 10 -5 8 -13 -1 -28 -8 -35 -17z"/>
<path d="M583 1885 c0 -8 4 -12 9 -9 5 3 6 10 3 15 -9 13 -12 11 -12 -6z"/>
<path d="M3341 1886 c-7 -8 -8 -17 -3 -20 6 -3 15 1 21 8 7 8 8 17 3 20 -6 3
-15 -1 -21 -8z"/>
<path d="M596 1818 c3 -4 9 -6 14 -3 5 3 11 1 15 -4 3 -6 12 -8 21 -4 8 3 12
8 9 12 -10 9 -65 9 -59 -1z"/>
<path d="M3336 1794 c-3 -8 -2 -21 1 -31 5 -12 3 -14 -8 -8 -12 8 -12 6 0 -9
13 -15 16 -15 29 -2 16 16 7 40 -11 30 -7 -3 -4 1 6 9 15 12 15 16 3 20 -8 3
-17 -1 -20 -9z m15 -47 c-10 -9 -11 -8 -5 6 3 10 9 15 12 12 3 -3 0 -11 -7
-18z"/>
<path d="M4528 1768 c-10 -10 -14 -18 -9 -18 6 0 12 4 16 10 3 5 12 7 20 3 8
-3 15 0 15 7 0 6 -4 9 -9 6 -5 -4 -11 -3 -13 2 -1 4 -11 0 -20 -10z"/>
<path d="M4562 1704 c10 -10 20 -16 22 -13 3 3 -5 11 -17 18 -21 13 -21 12 -5
-5z"/>
<path d="M604 1738 c-3 -4 5 -5 17 -3 30 6 36 14 9 12 -12 -1 -24 -5 -26 -9z"/>
<path d="M3790 1649 c0 -5 -4 -8 -9 -4 -5 3 -12 1 -15 -4 -3 -4 2 -8 12 -8 35
0 43 -3 36 -15 -4 -7 -3 -8 4 -4 7 4 12 3 12 -2 0 -5 -17 -13 -37 -18 l-38
-10 32 -5 c18 -3 30 -2 27 3 -3 4 1 8 8 8 17 1 51 47 43 60 -4 6 -12 7 -18 3
-19 -12 -49 -14 -42 -3 3 5 1 10 -4 10 -6 0 -11 -5 -11 -11z m62 -21 c-9 -9
-15 -9 -24 1 -11 10 -10 11 5 6 10 -5 17 -2 17 6 0 7 3 9 7 6 4 -4 1 -13 -5
-19z"/>
<path d="M4540 1559 c0 -5 5 -7 10 -4 6 3 10 8 10 11 0 2 -4 4 -10 4 -5 0 -10
-5 -10 -11z"/>
<path d="M640 1654 c0 -1 6 -7 14 -13 10 -8 16 -8 24 2 9 10 6 13 -13 13 -14
0 -25 -1 -25 -2z"/>
<path d="M3360 1650 c-12 -7 -12 -12 -2 -22 6 -6 12 -10 13 -7 0 2 2 12 4 22
4 20 4 19 -15 7z"/>
<path d="M3350 1595 c0 -9 6 -12 15 -9 8 4 12 10 9 15 -8 14 -24 10 -24 -6z"/>
<path d="M3387 1539 c7 -7 15 -10 18 -7 3 3 -2 9 -12 12 -14 6 -15 5 -6 -5z"/>
<path d="M4455 1569 c-4 -6 -5 -12 -2 -15 2 -3 7 2 10 11 7 17 1 20 -8 4z"/>
<path d="M4460 1540 c-9 -6 -10 -10 -3 -10 6 0 15 5 18 10 8 12 4 12 -15 0z"/>
<path d="M726 1567 c3 -10 9 -15 12 -12 3 3 0 11 -7 18 -10 9 -11 8 -5 -6z"/>
<path d="M736 1447 c3 -10 9 -15 12 -12 3 3 0 11 -7 18 -10 9 -11 8 -5 -6z"/>
<path d="M3939 1433 c-13 -16 -12 -17 4 -4 16 13 21 21 13 21 -2 0 -10 -8 -17
-17z"/>
<path d="M4086 1348 c-8 -33 -7 -48 3 -48 6 0 9 8 9 18 0 9 3 25 7 35 4 9 3
17 -3 17 -5 0 -12 -10 -16 -22z"/>
<path d="M4310 1426 c0 -2 7 -7 16 -10 8 -3 12 -2 9 4 -6 10 -25 14 -25 6z"/>
<path d="M4236 1367 c3 -10 9 -15 12 -12 3 3 0 11 -7 18 -10 9 -11 8 -5 -6z"/>
<path d="M4233 1285 c0 -8 4 -12 9 -9 5 3 6 10 3 15 -9 13 -12 11 -12 -6z"/>
<path d="M1186 1388 c3 -5 10 -6 15 -3 13 9 11 12 -6 12 -8 0 -12 -4 -9 -9z"/>
<path d="M4450 1401 c0 -6 4 -13 10 -16 6 -3 7 1 4 9 -7 18 -14 21 -14 7z"/>
<path d="M4496 1511 c-4 -5 -2 -12 3 -15 5 -4 12 -2 15 3 4 5 2 12 -3 15 -5 4
-12 2 -15 -3z"/>
<path d="M951 1480 c3 -31 -1 -41 -13 -34 -9 5 -9 2 1 -9 7 -9 21 -17 30 -17
10 0 12 3 5 8 -6 4 -10 14 -9 23 2 9 -1 23 -6 30 -8 12 -10 11 -8 -1z"/>
<path d="M950 1370 c0 -22 4 -40 9 -40 5 0 8 18 8 40 0 22 -4 40 -9 40 -4 0
-8 -18 -8 -40z"/>
<path d="M990 1318 c0 -4 4 -8 9 -8 6 0 12 4 15 8 3 5 -1 9 -9 9 -8 0 -15 -4
-15 -9z"/>
<path d="M2804 3763 c17 -20 17 -23 2 -29 -21 -8 -21 -23 2 -20 9 2 17 9 17
17 0 8 8 13 17 13 10 -1 14 4 11 13 -4 10 -9 11 -16 4 -8 -8 -17 -6 -31 7 -21
17 -21 17 -2 -5z"/>
<path d="M2730 3720 c0 -5 5 -10 11 -10 5 0 7 5 4 10 -3 6 -8 10 -11 10 -2 0
-4 -4 -4 -10z"/>
<path d="M2765 3721 c3 -6 -3 -15 -12 -21 -17 -11 -17 -11 -1 -6 20 6 44 -29
39 -54 -4 -19 0 -14 27 33 l22 37 -26 -4 c-16 -3 -27 0 -31 10 -3 8 -9 14 -15
14 -5 0 -7 -4 -3 -9z m45 -43 c0 -15 -15 -8 -28 12 -12 19 -11 20 8 8 11 -7
20 -16 20 -20z"/>
<path d="M2694 3699 c-4 -7 -3 -9 4 -5 6 3 15 -2 21 -11 6 -10 11 -13 11 -7 0
20 -27 37 -36 23z"/>
<path d="M2836 3621 c-3 -5 2 -15 12 -22 15 -12 16 -12 5 2 -7 9 -10 19 -6 22
3 4 4 7 0 7 -3 0 -8 -4 -11 -9z"/>
<path d="M2917 3617 c3 -6 -3 -17 -13 -25 -16 -12 -16 -14 -2 -9 10 3 20 2 23
-3 11 -18 27 -11 20 8 -4 9 -8 22 -8 28 0 6 -6 11 -13 11 -7 0 -10 -5 -7 -10z"/>
<path d="M2967 3574 c-3 -3 -3 -13 0 -22 4 -10 2 -13 -5 -8 -7 4 -12 2 -12 -4
0 -21 25 -4 26 18 1 24 1 25 -9 16z"/>
<path d="M2920 3515 c-11 -13 -10 -14 4 -9 9 3 16 10 16 15 0 13 -6 11 -20 -6z"/>
<path d="M2813 3473 c0 -9 4 -10 12 -3 7 5 15 7 18 3 4 -3 7 -1 7 5 0 6 -8 10
-18 9 -10 0 -19 -7 -19 -14z"/>
<path d="M2901 3444 c0 -11 3 -14 6 -6 3 7 2 16 -1 19 -3 4 -6 -2 -5 -13z"/>
<path d="M2870 3436 c0 -2 8 -10 18 -17 15 -13 16 -12 3 4 -13 16 -21 21 -21
13z"/>
<path d="M2906 3361 c-4 -5 -2 -12 3 -15 5 -4 12 -2 15 3 4 5 2 12 -3 15 -5 4
-12 2 -15 -3z"/>
<path d="M2635 3291 c-6 -11 13 -26 22 -17 4 3 1 6 -6 6 -7 0 -9 5 -6 10 3 6
4 10 1 10 -3 0 -7 -4 -11 -9z"/>
<path d="M2376 3188 c3 -5 10 -6 15 -3 13 9 11 12 -6 12 -8 0 -12 -4 -9 -9z"/>
<path d="M686 3091 c-4 -5 -1 -13 5 -17 8 -4 9 -3 5 4 -4 7 -3 12 3 12 5 0 12
-5 14 -10 3 -6 4 -5 3 2 -3 16 -23 22 -30 9z"/>
<path d="M753 3065 c0 -6 6 -12 12 -12 6 0 12 6 12 12 0 6 -6 12 -12 12 -6 0
-12 -6 -12 -12z"/>
<path d="M874 3039 c-4 -7 -3 -9 4 -5 5 3 12 0 15 -6 2 -7 7 -10 11 -7 4 3 0
12 -8 18 -11 9 -16 9 -22 0z"/>
<path d="M922 3018 c-15 -15 -15 -28 0 -28 6 0 8 3 5 7 -4 3 -2 12 4 20 14 16
7 17 -9 1z"/>
<path d="M950 2981 c0 -5 7 -15 17 -22 15 -13 15 -12 4 9 -12 23 -21 28 -21
13z"/>
<path d="M4271 2967 c2 -1 13 -9 24 -17 19 -14 19 -14 6 3 -7 9 -18 17 -24 17
-6 0 -8 -1 -6 -3z"/>
<path d="M1010 2932 c0 -7 -5 -10 -12 -6 -7 4 -8 3 -4 -5 4 -6 12 -8 18 -5 8
5 9 1 4 -12 -5 -14 -4 -16 4 -7 9 8 9 16 1 30 -6 10 -11 13 -11 5z"/>
<path d="M895 2780 c3 -5 8 -10 11 -10 2 0 4 5 4 10 0 6 -5 10 -11 10 -5 0 -7
-4 -4 -10z"/>
<path d="M950 2719 c0 -5 5 -7 10 -4 6 3 10 8 10 11 0 2 -4 4 -10 4 -5 0 -10
-5 -10 -11z"/>
<path d="M925 2699 c-4 -6 -4 -13 -1 -16 3 -4 6 -1 6 6 0 7 5 9 12 5 7 -4 8
-3 4 4 -9 15 -13 15 -21 1z"/>
<path d="M1001 2691 c-8 -5 -11 -16 -8 -24 3 -8 0 -21 -6 -28 -10 -11 -9 -11
6 0 19 15 24 2 5 -17 -9 -9 -9 -12 0 -12 7 0 12 4 12 8 0 4 10 8 21 9 17 2 19
-1 10 -10 -19 -19 -12 -28 8 -9 18 17 18 17 -1 35 -11 9 -17 17 -13 17 4 0 2
6 -4 13 -6 8 -8 17 -4 20 9 10 -10 8 -26 -2z m26 -42 c2 -24 0 -23 -16 8 -9
18 -9 22 2 18 7 -3 13 -15 14 -26z"/>
<path d="M947 2639 c7 -7 15 -10 18 -7 3 3 -2 9 -12 12 -14 6 -15 5 -6 -5z"/>
<path d="M3482 2636 c-34 -20 -40 -29 -12 -21 20 6 23 5 13 -6 -7 -7 -13 -17
-13 -22 0 -5 9 1 20 14 10 13 19 19 20 12 0 -6 -4 -15 -10 -18 -18 -11 -10
-23 15 -21 22 1 23 3 10 13 -12 8 -13 13 -4 18 8 6 7 10 -5 17 -9 5 -14 13
-11 19 7 11 6 11 -23 -5z"/>
<path d="M3492 2500 c2 -8 -3 -14 -10 -12 -8 1 -11 -2 -7 -8 3 -6 10 -8 15 -5
4 3 11 -1 14 -7 2 -7 4 -3 2 9 -1 12 -6 26 -10 30 -4 5 -6 1 -4 -7z"/>
<path d="M3530 2491 c0 -5 -3 -18 -6 -28 -3 -10 2 -7 10 7 8 14 16 23 16 20 7
-30 7 -40 -1 -40 -5 0 -9 -4 -9 -9 0 -13 44 -8 53 7 4 6 3 20 -2 30 -7 11 -11
12 -11 4 0 -10 -4 -10 -16 2 -17 18 -34 21 -34 7z m60 -32 c0 -4 -6 -9 -13
-12 -8 -3 -14 0 -14 7 0 7 6 13 14 13 7 0 13 -4 13 -8z"/>
<path d="M1352 2444 c-1 -13 0 -24 2 -24 7 0 14 40 7 44 -4 3 -8 -6 -9 -20z"/>
<path d="M3516 2423 c-6 -14 -5 -15 5 -6 7 7 10 15 7 18 -3 3 -9 -2 -12 -12z"/>
<path d="M1596 2369 c21 -23 21 -23 21 -5 0 8 -9 17 -20 20 -18 4 -18 4 -1
-15z"/>
<path d="M3586 2372 c2 -3 -1 -11 -7 -19 -8 -9 -8 -13 -1 -13 16 0 26 20 15
30 -6 4 -8 5 -7 2z"/>
<path d="M335 2300 c-3 -5 -1 -10 4 -10 6 0 11 5 11 10 0 6 -2 10 -4 10 -3 0
-8 -4 -11 -10z"/>
<path d="M1705 2292 c-17 -12 -14 -28 5 -28 13 0 16 4 9 12 -7 8 -6 14 3 17 7
3 9 6 3 6 -5 0 -14 -3 -20 -7z"/>
<path d="M306 2275 c-3 -9 -11 -13 -17 -9 -8 5 -9 3 -4 -5 6 -10 11 -9 23 3 9
8 13 18 10 21 -3 3 -8 -1 -12 -10z"/>
<path d="M1596 2278 c3 -5 10 -6 15 -3 13 9 11 12 -6 12 -8 0 -12 -4 -9 -9z"/>
<path d="M3430 2280 c0 -5 5 -10 11 -10 5 0 7 5 4 10 -3 6 -8 10 -11 10 -2 0
-4 -4 -4 -10z"/>
<path d="M1596 2233 c-6 -14 -5 -15 5 -6 7 7 10 15 7 18 -3 3 -9 -2 -12 -12z"/>
<path d="M1646 2238 c3 -5 10 -6 15 -3 13 9 11 12 -6 12 -8 0 -12 -4 -9 -9z"/>
<path d="M3393 2215 c0 -8 4 -12 9 -9 4 3 8 9 8 15 0 5 -4 9 -8 9 -5 0 -9 -7
-9 -15z"/>
<path d="M286 2193 c-10 -14 -24 -22 -31 -19 -10 3 -12 0 -8 -12 3 -9 3 -14
-2 -10 -10 9 -35 -10 -35 -26 0 -6 4 -5 9 3 6 9 11 10 15 2 4 -6 0 -14 -9 -17
-10 -4 -12 -10 -7 -18 16 -19 10 -48 -7 -41 -9 4 -18 7 -21 8 -3 1 -7 -2 -8
-8 -11 -30 -24 -45 -35 -38 -7 4 -4 -5 6 -20 22 -34 22 -55 0 -28 -14 16 -21
18 -33 10 -12 -9 -12 -10 3 -5 13 4 20 0 24 -14 4 -16 11 -19 27 -14 17 5 19
4 9 -7 -20 -20 -15 -31 10 -24 21 7 22 7 2 -8 -14 -11 -25 -12 -37 -6 -14 8
-16 6 -11 -7 4 -10 2 -15 -3 -11 -6 3 -16 1 -24 -5 -12 -8 -12 -9 2 -4 22 6
34 -10 13 -18 -8 -3 -14 -13 -14 -23 1 -17 2 -17 6 0 2 9 9 17 14 17 6 0 8 -4
4 -9 -8 -14 15 -25 27 -13 6 6 11 24 12 39 1 15 6 27 13 26 17 -4 25 27 8 33
-8 4 -13 10 -10 14 3 5 1 11 -4 15 -15 8 -1 37 15 31 8 -3 11 0 8 9 -6 14 -21
15 -41 2 -17 -11 -16 -1 3 29 10 15 23 23 33 19 20 -6 46 9 37 23 -7 11 18 35
27 26 10 -11 25 31 22 63 -1 18 0 31 4 29 14 -9 29 9 17 20 -9 8 -16 4 -30
-13z m-6 -33 c-13 -9 -13 -10 0 -10 10 0 11 -3 4 -8 -6 -4 -10 -15 -8 -25 1
-11 0 -16 -3 -13 -4 3 -12 1 -20 -6 -17 -14 -29 -3 -15 15 9 10 8 17 -1 27 -7
8 -8 11 -1 7 7 -4 17 0 24 8 7 8 18 15 24 15 6 0 4 -5 -4 -10z m-113 -290 c1
-11 -2 -20 -7 -20 -6 0 -7 17 -1 38 3 8 7 -1 8 -18z"/>
<path d="M259 2145 c-1 -3 -2 -8 -3 -12 -1 -5 -5 -15 -10 -23 -7 -12 -6 -13 4
-3 13 12 23 43 14 43 -2 0 -5 -2 -5 -5z"/>
<path d="M215 2180 c-3 -5 -1 -10 4 -10 6 0 11 5 11 10 0 6 -2 10 -4 10 -3 0
-8 -4 -11 -10z"/>
<path d="M3361 2161 c-9 -6 -10 -11 -2 -15 6 -4 11 -2 11 4 0 6 5 8 12 4 7 -4
8 -3 4 4 -8 14 -7 14 -25 3z"/>
<path d="M145 2079 c-3 -4 2 -6 10 -5 21 3 28 13 10 13 -9 0 -18 -4 -20 -8z"/>
<path d="M195 2080 c3 -5 8 -10 11 -10 2 0 4 5 4 10 0 6 -5 10 -11 10 -5 0 -7
-4 -4 -10z"/>
<path d="M115 2020 c-3 -5 -1 -10 4 -10 6 0 11 5 11 10 0 6 -2 10 -4 10 -3 0
-8 -4 -11 -10z"/>
<path d="M2895 2001 c-3 -5 -2 -12 3 -15 5 -3 9 1 9 9 0 17 -3 19 -12 6z"/>
<path d="M3124 1993 c4 -7 2 -23 -4 -35 -11 -22 -11 -22 5 -3 14 17 17 18 25
5 5 -8 10 -10 10 -4 0 6 -10 19 -22 30 -12 10 -18 13 -14 7z"/>
<path d="M3285 1920 c-3 -6 1 -7 9 -4 18 7 21 14 7 14 -6 0 -13 -4 -16 -10z"/>
<path d="M100 1900 c-8 -5 -10 -10 -5 -10 6 0 17 5 25 10 8 5 11 10 5 10 -5 0
-17 -5 -25 -10z"/>
<path d="M3295 1900 c-3 -5 -2 -10 4 -10 5 0 13 5 16 10 3 6 2 10 -4 10 -5 0
-13 -4 -16 -10z"/>
<path d="M3280 1871 c0 -7 -5 -9 -12 -5 -8 4 -10 3 -5 -2 5 -5 14 -9 20 -9 7
-1 11 -6 10 -13 -2 -7 2 -12 7 -12 14 0 12 11 -5 34 -8 11 -15 14 -15 7z"/>
<path d="M70 1861 c0 -6 4 -13 10 -16 6 -3 7 1 4 9 -7 18 -14 21 -14 7z"/>
<path d="M96 1857 c3 -10 9 -15 12 -12 3 3 0 11 -7 18 -10 9 -11 8 -5 -6z"/>
<path d="M3255 1791 c-3 -5 -2 -12 3 -15 5 -3 9 1 9 9 0 17 -3 19 -12 6z"/>
<path d="M95 1780 c-3 -5 -1 -10 4 -10 6 0 11 5 11 10 0 6 -2 10 -4 10 -3 0
-8 -4 -11 -10z"/>
<path d="M196 1767 c3 -10 9 -15 12 -12 3 3 0 11 -7 18 -10 9 -11 8 -5 -6z"/>
<path d="M3270 1721 c0 -5 5 -13 10 -16 6 -3 10 -2 10 4 0 5 -4 13 -10 16 -5
3 -10 2 -10 -4z"/>
<path d="M3270 1660 c0 -5 9 -8 20 -7 21 1 18 10 -5 13 -8 1 -15 -2 -15 -6z"/>
<path d="M115 1651 c-6 -11 13 -26 22 -17 4 3 1 6 -6 6 -7 0 -9 5 -6 10 3 6 4
10 1 10 -3 0 -7 -4 -11 -9z"/>
<path d="M108 1613 c7 -3 16 -2 19 1 4 3 -2 6 -13 5 -11 0 -14 -3 -6 -6z"/>
<path d="M111 1573 c6 -7 17 -13 23 -12 7 0 6 2 -2 6 -6 2 -10 8 -8 12 3 4 -1
8 -9 8 -11 0 -12 -4 -4 -14z"/>
<path d="M3315 1540 c3 -5 8 -10 11 -10 2 0 4 5 4 10 0 6 -5 10 -11 10 -5 0
-7 -4 -4 -10z"/>
<path d="M154 1520 c0 -13 4 -16 10 -10 7 7 7 13 0 20 -6 6 -10 3 -10 -10z"/>
<path d="M226 1518 c3 -5 10 -6 15 -3 13 9 11 12 -6 12 -8 0 -12 -4 -9 -9z"/>
<path d="M176 1457 c3 -10 9 -15 12 -12 3 3 0 11 -7 18 -10 9 -11 8 -5 -6z"/>
<path d="M170 1419 c0 -5 5 -7 10 -4 6 3 10 8 10 11 0 2 -4 4 -10 4 -5 0 -10
-5 -10 -11z"/>
<path d="M243 1412 c-7 -5 3 -15 30 -30 l42 -23 -30 31 c-16 16 -29 30 -29 30
-1 0 -6 -4 -13 -8z"/>
<path d="M230 1380 c8 -5 20 -10 25 -10 6 0 3 5 -5 10 -8 5 -19 10 -25 10 -5
0 -3 -5 5 -10z"/>
<path d="M270 1360 c0 -6 4 -10 9 -10 5 0 8 -11 7 -25 -1 -27 -6 -31 -22 -15
-7 7 -11 6 -11 -4 0 -9 9 -13 24 -11 16 1 23 -3 23 -14 0 -9 6 -4 15 13 20 38
20 38 -15 58 -17 9 -30 13 -30 8z m45 -50 c-5 -8 -11 -8 -17 -2 -6 6 -7 16 -3
22 5 8 11 8 17 2 6 -6 7 -16 3 -22z"/>
<path d="M3433 1318 c0 -13 1 -17 4 -10 3 6 10 9 16 5 7 -4 6 1 -2 10 -17 21
-17 21 -18 -5z"/>
<path d="M316 1247 c3 -10 9 -15 12 -12 3 3 0 11 -7 18 -10 9 -11 8 -5 -6z"/>
<path d="M3506 1248 c3 -5 10 -6 15 -3 13 9 11 12 -6 12 -8 0 -12 -4 -9 -9z"/>
<path d="M440 1180 c-9 -6 -10 -10 -3 -10 6 0 15 5 18 10 8 12 4 12 -15 0z"/>
<path d="M3670 1160 c0 -5 5 -10 11 -10 5 0 7 5 4 10 -3 6 -8 10 -11 10 -2 0
-4 -4 -4 -10z"/>
<path d="M455 1120 c3 -5 8 -10 11 -10 2 0 4 5 4 10 0 6 -5 10 -11 10 -5 0 -7
-4 -4 -10z"/>
<path d="M3875 1050 c3 -5 8 -10 11 -10 2 0 4 5 4 10 0 6 -5 10 -11 10 -5 0
-7 -4 -4 -10z"/>
</g>
</svg>
